<svg id="Layer_1" data-name="Layer 1" xmlns="http://www.w3.org/2000/svg" viewBox="0 0 630.39 231"><defs><style>.cls-1{fill:#fff;}.cls-12,.cls-2,.cls-5{fill:#3c3c41;}.cls-2{opacity:0.18;}.cls-10,.cls-19,.cls-2,.cls-3,.cls-5,.cls-6,.cls-8,.cls-9{isolation:isolate;}.cls-19,.cls-3,.cls-8{fill:#50e6ff;}.cls-3{opacity:0.06;}.cls-11,.cls-4,.cls-7{fill:none;}.cls-11,.cls-4{stroke:#3c3c41;}.cls-4{stroke-dasharray:1 2;}.cls-19,.cls-5{opacity:0.15;}.cls-6{fill:#0072c6;opacity:0.09;}.cls-7{stroke:#0072c6;stroke-width:0.5px;}.cls-8{opacity:0.7;}.cls-9{fill:#0078d4;opacity:0.5;}.cls-10{fill:#008575;opacity:0.4;}.cls-11{stroke-miterlimit:10;}.cls-13{fill:#804998;}.cls-14{fill:#40244c;}.cls-15{fill:#5c4168;}.cls-16{fill:#c0a4cc;}.cls-17{fill:#a092a6;}.cls-18{fill:#996dad;}</style></defs><title>OJ104601287</title><g id="Shapes"><rect class="cls-1" width="630.39" height="231"/><rect class="cls-1" x="149.62" width="480.77" height="231"/><rect class="cls-2" x="149.62" width="480.77" height="231"/><rect class="cls-1" width="140.16" height="231"/><rect class="cls-2" width="140.16" height="231"/><rect class="cls-1" x="155.87" y="26.5" width="360" height="200" rx="5"/><rect class="cls-3" x="155.87" y="26.5" width="360" height="200" rx="5"/><rect class="cls-4" x="155.87" y="26.5" width="360" height="200" rx="5"/><rect class="cls-1" x="524.89" y="26.5" width="100" height="200" rx="5"/><rect class="cls-3" x="524.89" y="26.5" width="100" height="200" rx="5"/><rect class="cls-4" x="524.89" y="26.5" width="100" height="200" rx="5"/><rect class="cls-1" x="356.98" y="61" width="144.73" height="155"/><rect class="cls-5" x="356.98" y="61" width="144.73" height="155"/><rect class="cls-1" x="171.64" y="181" width="125" height="35"/><rect class="cls-6" x="171.64" y="181" width="125" height="35"/><rect class="cls-7" x="171.64" y="181" width="125" height="35"/><rect class="cls-1" x="171.64" y="122" width="125" height="35"/><rect class="cls-6" x="171.64" y="122" width="125" height="35"/><rect class="cls-7" x="171.64" y="122" width="125" height="35"/><rect class="cls-1" x="7.58" y="44.35" width="125" height="25"/><rect class="cls-8" x="7.58" y="44.35" width="125" height="25"/><rect class="cls-1" x="7.58" y="89.5" width="125" height="25"/><rect class="cls-9" x="7.58" y="89.5" width="125" height="25"/><rect class="cls-1" x="7.58" y="134.5" width="125" height="25"/><rect class="cls-10" x="7.58" y="134.5" width="125" height="25"/><rect class="cls-1" x="366.84" y="90.85" width="125" height="25"/><rect class="cls-8" x="366.84" y="90.85" width="125" height="25"/><rect class="cls-1" x="366.84" y="136" width="125" height="25"/><rect class="cls-9" x="366.84" y="136" width="125" height="25"/><rect class="cls-1" x="366.84" y="181" width="125" height="25"/><rect class="cls-10" x="366.84" y="181" width="125" height="25"/><line class="cls-11" x1="234.14" y1="162.38" x2="234.14" y2="175.62"/><polygon class="cls-12" points="230.4 163.48 234.14 157 237.88 163.48 230.4 163.48"/><polygon class="cls-12" points="230.4 174.52 234.14 181 237.88 174.52 230.4 174.52"/><line class="cls-11" x1="234.14" y1="102.38" x2="234.14" y2="115.62"/><polygon class="cls-12" points="230.4 103.48 234.14 97 237.88 103.48 230.4 103.48"/><polygon class="cls-12" points="230.4 114.52 234.14 121 237.88 114.52 230.4 114.52"/><line class="cls-11" x1="351.6" y1="79.5" x2="302.02" y2="79.5"/><polygon class="cls-12" points="350.5 75.76 356.98 79.5 350.5 83.24 350.5 75.76"/><polygon class="cls-12" points="303.12 75.76 296.64 79.5 303.12 83.24 303.12 75.76"/><polyline class="cls-13" points="574.69 81.94 555.8 88.22 555.8 103.82 573.3 110.28 574.67 110.79 574.67 110.79 593.8 103.85 593.8 88.23 574.69 81.94"/><path class="cls-14" d="M557.81,89.73l-.45.16v13.22l.31.11h.14V89.73m.78-.9-1.23.42v.64l.46-.16h0l.78-.27v-.63"/><path class="cls-14" d="M560.39,88.85l-.6.21v14.87l.6.2V88.85m1.23-1-1.83.62v.64l.6-.2h0l1.23-.42V87.8"/><path d="M559.79,88.42l1.84-.62Z"/><path class="cls-14" d="M563.26,87.88l-.58.2v16.83l.58.2V87.88m1.8-.62-1.06.36,1.06-.34h0m0-.64-2.38.82v.63l.58-.2h0l.74-.24,1-.36v-.63"/><path class="cls-14" d="M566.93,86.63l-.6.2v19.32l.6.18V86.63m2-1.35-2.61.91v.64l.6-.2h0l2-.68v-.66"/><path class="cls-14" d="M570.67,85.36l-.61.2v21.83l.61.22V85.36m2.65-1.54-3.26,1.11v.63l.61-.2h0l2.65-.9v-.64"/><path class="cls-15" d="M592.39,88.59a.51.51,0,1,0,.51.51.51.51,0,0,0-.51-.51h0"/><path class="cls-16" d="M557.36,89.89h0m2.43-.83-2,.67h0l2-.67m2.89-1-2.29.77,2.29-.77m1.32-.45h0l-.74.25.74-.25m2.33-.8-1.28.44,1.28-.44m3.73-1.27-3.13,1.07,3.13-1.07m3.26-1.11h0l-2.65.91h0l2.65-.91"/><polyline class="cls-17" points="557.81 89.73 557.36 89.89 557.36 89.89 557.81 89.73 557.81 89.73"/><polyline class="cls-17" points="560.39 88.86 559.79 89.06 560.39 88.86"/><path class="cls-17" d="M563.26,87.88l-.58.2.58-.2m1.8-.62-1.06.36,1.06-.36"/><polyline class="cls-17" points="566.93 86.63 566.33 86.83 566.93 86.63"/><path class="cls-18" d="M574.69,82v28.82l19.1-6.94V88.26Zm17.7,6.62a.51.51,0,1,1-.51.51.51.51,0,0,1,.51-.51h0ZM576,83.34a.5.5,0,0,1,.5.5h0a.5.5,0,0,1-.5.5h0a.5.5,0,0,1-.51-.49h0a.51.51,0,0,1,.51-.51Z"/><polyline class="cls-13" points="574.69 121.94 555.8 128.22 555.8 143.82 573.3 150.28 574.67 150.79 574.67 150.79 593.8 143.85 593.8 128.23 574.69 121.94"/><path class="cls-14" d="M557.81,129.73l-.45.16v13.22l.31.11h.14V129.73m.78-.9-1.23.42v.64l.46-.16h0l.78-.27v-.63"/><path class="cls-14" d="M560.39,128.85l-.6.21v14.87l.6.2V128.85m1.23-1-1.83.62v.64l.6-.2h0l1.23-.42v-.64"/><path d="M559.79,128.42l1.84-.62Z"/><path class="cls-14" d="M563.26,127.88l-.58.2v16.83l.58.2V127.88m1.8-.62-1.06.36,1.06-.34h0m0-.64-2.38.82v.63l.58-.2h0l.74-.24,1-.36v-.63"/><path class="cls-14" d="M566.93,126.63l-.6.2v19.32l.6.18v-19.7m2-1.35-2.61.91v.64l.6-.2h0l2-.68v-.66"/><path class="cls-14" d="M570.67,125.36l-.61.2v21.83l.61.22V125.36m2.65-1.54-3.26,1.11v.63l.61-.2h0l2.65-.9v-.64"/><path class="cls-15" d="M592.39,128.59a.51.51,0,1,0,.51.51.51.51,0,0,0-.51-.51h0"/><path class="cls-16" d="M557.36,129.89h0m2.43-.83-2,.67h0l2-.67m2.89-1-2.29.77,2.29-.77m1.32-.45h0l-.74.25.74-.25m2.33-.8-1.28.44,1.28-.44m3.73-1.27-3.13,1.07,3.13-1.07m3.26-1.11h0l-2.65.91h0l2.65-.91"/><polyline class="cls-17" points="557.81 129.73 557.36 129.88 557.36 129.88 557.81 129.73 557.81 129.73"/><polyline class="cls-17" points="560.39 128.85 559.79 129.06 560.39 128.85"/><path class="cls-17" d="M563.26,127.88l-.58.2.58-.2m1.8-.62-1.06.36,1.06-.36"/><polyline class="cls-17" points="566.93 126.63 566.33 126.83 566.93 126.63"/><path class="cls-18" d="M574.69,122v28.82l19.1-6.94V128.26Zm17.7,6.62a.51.51,0,1,1-.51.51.51.51,0,0,1,.51-.51h0ZM576,123.34a.5.5,0,0,1,.5.5h0a.5.5,0,0,1-.5.5h0a.5.5,0,0,1-.51-.49h0a.51.51,0,0,1,.51-.51Z"/><polyline class="cls-13" points="574.69 161.94 555.8 168.22 555.8 183.82 573.3 190.28 574.67 190.79 574.67 190.79 593.8 183.85 593.8 168.23 574.69 161.94"/><path class="cls-14" d="M557.81,169.73l-.45.16v13.22l.31.11h.14V169.73m.78-.9-1.23.42v.64l.46-.16h0l.78-.27v-.63"/><path class="cls-14" d="M560.39,168.85l-.6.21v14.87l.6.2V168.85m1.23-1-1.83.62v.64l.6-.2h0l1.23-.42v-.64"/><path d="M559.79,168.42l1.84-.62Z"/><path class="cls-14" d="M563.26,167.88l-.58.2v16.83l.58.2V167.88m1.8-.62-1.06.36,1.06-.34h0m0-.64-2.38.82v.63l.58-.2h0l.74-.24,1-.36v-.63"/><path class="cls-14" d="M566.93,166.63l-.6.2v19.32l.6.18v-19.7m2-1.35-2.61.91v.64l.6-.2h0l2-.68v-.66"/><path class="cls-14" d="M570.67,165.36l-.61.2v21.83l.61.22V165.36m2.65-1.54-3.26,1.11v.63l.61-.2h0l2.65-.9v-.64"/><path class="cls-15" d="M592.39,168.59a.51.51,0,1,0,.51.51.51.51,0,0,0-.51-.51h0"/><path class="cls-16" d="M557.36,169.89h0m2.43-.83-2,.67h0l2-.67m2.89-1-2.29.77,2.29-.77m1.32-.45h0l-.74.25.74-.25m2.33-.8-1.28.44,1.28-.44m3.73-1.27-3.13,1.07,3.13-1.07m3.26-1.11h0l-2.65.91h0l2.65-.91"/><polyline class="cls-17" points="557.81 169.73 557.36 169.88 557.36 169.88 557.81 169.73 557.81 169.73"/><polyline class="cls-17" points="560.39 168.85 559.79 169.06 560.39 168.85"/><path class="cls-17" d="M563.26,167.88l-.58.2.58-.2m1.8-.62-1.06.36,1.06-.36"/><polyline class="cls-17" points="566.93 166.63 566.33 166.83 566.93 166.63"/><path class="cls-18" d="M574.69,162v28.82l19.1-6.94V168.26Zm17.7,6.62a.51.51,0,1,1-.51.51.51.51,0,0,1,.51-.51h0ZM576,163.34a.5.5,0,0,1,.5.5h0a.5.5,0,0,1-.5.5h0a.5.5,0,0,1-.51-.49h0a.51.51,0,0,1,.51-.51Z"/><rect class="cls-1" x="171.64" y="61" width="125" height="35"/><rect class="cls-19" x="171.64" y="61" width="125" height="35"/><rect class="cls-7" x="171.64" y="61" width="125" height="35"/><path class="cls-11" d="M280.39,55V47.83a5,5,0,0,1,5-5H531.28"/><polygon class="cls-12" points="284.13 53.89 280.39 60.36 276.65 53.89 284.13 53.89"/><polygon class="cls-12" points="530.18 46.57 536.66 42.83 530.18 39.09 530.18 46.57"/><line class="cls-11" x1="130.77" y1="79.5" x2="165.05" y2="79.5"/><polygon class="cls-12" points="131.87 83.24 125.39 79.5 131.87 75.76 131.87 83.24"/><polygon class="cls-12" points="163.95 83.24 170.43 79.5 163.95 75.76 163.95 83.24"/></g><path d="M420.46,197.46h-1.39l-4.56-7.06a2.79,2.79,0,0,1-.31-.59h0a10.64,10.64,0,0,1,0,1.27v6.38h-1.16v-9.07h1.47l4.44,6.94a4.31,4.31,0,0,1,.37.62h0a9.92,9.92,0,0,1-.06-1.32v-6.24h1.16Z"/><path d="M428.28,196.92q0,3.6-3.49,3.6a4.64,4.64,0,0,1-2.1-.45V199a4.33,4.33,0,0,0,2.08.6c1.58,0,2.36-.83,2.36-2.48v-.69h0a2.41,2.41,0,0,1-2.2,1.23,2.38,2.38,0,0,1-2-.88,3.46,3.46,0,0,1-.74-2.31,4,4,0,0,1,.81-2.63,2.66,2.66,0,0,1,2.16-1,2.09,2.09,0,0,1,1.92,1h0V191h1.15Zm-1.15-3.31a1.76,1.76,0,0,0-.5-1.29,1.66,1.66,0,0,0-1.25-.54,1.71,1.71,0,0,0-1.46.69,3.05,3.05,0,0,0-.52,1.89,2.6,2.6,0,0,0,.5,1.67,1.64,1.64,0,0,0,1.34.64,1.78,1.78,0,0,0,1.37-.61,2.24,2.24,0,0,0,.52-1.55Z"/><path d="M430.19,188.7a.68.68,0,0,1,.21-.51.69.69,0,0,1,.51-.21.78.78,0,0,1,.53.2.74.74,0,0,1,0,1,.78.78,0,0,1-.53.2.71.71,0,0,1-.51-.2A.69.69,0,0,1,430.19,188.7Zm.14,8.76V191h1.15v6.48Z"/><path d="M439,197.46h-1.14v-3.68c0-1.33-.48-2-1.46-2a1.59,1.59,0,0,0-1.24.56,2.14,2.14,0,0,0-.49,1.43v3.69h-1.14V191h1.14v1.08h0a2.34,2.34,0,0,1,2.13-1.23,2,2,0,0,1,1.62.68,3.1,3.1,0,0,1,.55,2Z"/><path d="M445.83,191l-2.17,3.27,2.14,3.21h-1.34l-1.24-2.06-.28-.5h0a4.72,4.72,0,0,1-.29.5l-1.26,2.06h-1.32l2.2-3.18-2.1-3.3h1.33l1.22,2.17.27.52h0l1.58-2.69Z"/><path d="M414.54,143.68,412,152.76h-1.37l-1.83-6.54a4.1,4.1,0,0,1-.14-.94h0a4.11,4.11,0,0,1-.16.93l-1.84,6.55h-1.36l-2.63-9.08h1.3l1.85,6.86a4.1,4.1,0,0,1,.14.93h0a4.93,4.93,0,0,1,.19-.93l2-6.86h1.15l1.87,6.91a4.71,4.71,0,0,1,.16.87h0a5.17,5.17,0,0,1,.17-.9l1.78-6.88Z"/><path d="M415.58,144a.69.69,0,0,1,.21-.51.68.68,0,0,1,.51-.21.73.73,0,0,1,.52.2.71.71,0,0,1,0,1,.72.72,0,0,1-1.24-.51Zm.13,8.77v-6.48h1.15v6.48Z"/><path d="M424.39,152.76h-1.14v-3.69c0-1.33-.49-2-1.46-2a1.58,1.58,0,0,0-1.24.56,2.09,2.09,0,0,0-.49,1.43v3.7h-1.15v-6.48h1.15v1.07h0a2.34,2.34,0,0,1,2.13-1.23,2,2,0,0,1,1.62.69,3,3,0,0,1,.56,2Z"/><path d="M431.93,152.76h-1.15v-1.08h0a2.37,2.37,0,0,1-2.2,1.23,2.4,2.4,0,0,1-2-.88,3.6,3.6,0,0,1-.73-2.36,3.91,3.91,0,0,1,.82-2.58,2.71,2.71,0,0,1,2.15-1,2.07,2.07,0,0,1,1.92,1h0v-4h1.15Zm-1.14-3.86a1.79,1.79,0,0,0-.51-1.3,1.83,1.83,0,0,0-2.71.15,3,3,0,0,0-.53,1.87,2.64,2.64,0,0,0,.51,1.71,1.65,1.65,0,0,0,1.35.63,1.7,1.7,0,0,0,1.36-.62,2.29,2.29,0,0,0,.53-1.54Z"/><path d="M433.55,149.59a3.5,3.5,0,0,1,.9-2.54,3.19,3.19,0,0,1,2.43-.93,3,3,0,0,1,2.29.9,3.49,3.49,0,0,1,.82,2.47,3.44,3.44,0,0,1-.88,2.47,3.1,3.1,0,0,1-2.37.95,3,3,0,0,1-2.32-.92A3.34,3.34,0,0,1,433.55,149.59Zm1.17,0a2.55,2.55,0,0,0,.57,1.76,1.91,1.91,0,0,0,1.52.65,1.84,1.84,0,0,0,1.5-.63,3.47,3.47,0,0,0,0-3.62,1.82,1.82,0,0,0-1.5-.64,1.89,1.89,0,0,0-1.53.66A2.77,2.77,0,0,0,434.72,149.55Z"/><path d="M449.91,146.28,448,152.76h-1.19l-1.29-4.55a3.09,3.09,0,0,1-.11-.62h0a2.57,2.57,0,0,1-.14.61l-1.39,4.56h-1.16l-1.95-6.48h1.2l1.29,4.8a3.21,3.21,0,0,1,.09.59h.05a2.44,2.44,0,0,1,.11-.61l1.39-4.78h1.06l1.36,4.81a4.16,4.16,0,0,1,.1.59h.05a2.41,2.41,0,0,1,.11-.59l1.26-4.81Z"/><path d="M450.72,151.36a3.18,3.18,0,0,0,1.87.62c.9,0,1.34-.29,1.34-.88a.73.73,0,0,0-.29-.61,4.15,4.15,0,0,0-1.19-.58,3.47,3.47,0,0,1-1.4-.86,1.68,1.68,0,0,1-.32-1,1.62,1.62,0,0,1,.73-1.38,3,3,0,0,1,1.79-.52,4.1,4.1,0,0,1,1.54.29v1.11a3,3,0,0,0-1.65-.47,1.53,1.53,0,0,0-.89.24.74.74,0,0,0-.35.63.76.76,0,0,0,.25.61,4.45,4.45,0,0,0,1.1.55,3.74,3.74,0,0,1,1.47.84,1.59,1.59,0,0,1,.38,1.07,1.63,1.63,0,0,1-.73,1.41,3.24,3.24,0,0,1-1.89.51,3.9,3.9,0,0,1-1.76-.38Z"/><path d="M398,104.13q0,3.86-3.49,3.85t-3.35-3.71V98.75h1.18v5.46q0,2.73,2.28,2.73c1.47,0,2.21-.88,2.21-2.64V98.75H398Z"/><path d="M401.22,106.92v.91h-1.15V98.24h1.15v4.23h0a2.44,2.44,0,0,1,2.23-1.27,2.39,2.39,0,0,1,1.93.85,3.57,3.57,0,0,1,.72,2.35,4,4,0,0,1-.8,2.61,2.66,2.66,0,0,1-2.15,1,2.13,2.13,0,0,1-1.93-1.06Zm0-1.76a1.86,1.86,0,0,0,.51,1.33,1.8,1.8,0,0,0,2.71-.16,3.27,3.27,0,0,0,.51-2,2.57,2.57,0,0,0-.48-1.63,1.58,1.58,0,0,0-1.31-.6,1.79,1.79,0,0,0-1.39.6,2.16,2.16,0,0,0-.55,1.53Z"/><path d="M413.08,107.83h-1.15v-1h0a2.13,2.13,0,0,1-2,1.17c-1.54,0-2.31-.92-2.31-2.75v-3.88h1.14v3.71c0,1.31.5,2,1.51,2a1.48,1.48,0,0,0,1.21-.55,2.11,2.11,0,0,0,.47-1.4v-3.73h1.15Z"/><path d="M420.61,107.83h-1.15v-3.69c0-1.33-.48-2-1.46-2a1.56,1.56,0,0,0-1.24.56,2.1,2.1,0,0,0-.48,1.42v3.7h-1.15v-6.48h1.15v1.07h0a2.33,2.33,0,0,1,2.13-1.22,2,2,0,0,1,1.62.68,3.08,3.08,0,0,1,.56,2Z"/><path d="M425.63,107.76a2.08,2.08,0,0,1-1,.21c-1.16,0-1.74-.64-1.74-1.93V102.3h-1.11v-1h1.11V99.79l1.14-.36v1.92h1.61v1H424v3.54a1.45,1.45,0,0,0,.22.91.86.86,0,0,0,.72.28,1.1,1.1,0,0,0,.67-.22Z"/><path d="M432.34,107.83h-1.15v-1h0a2.13,2.13,0,0,1-2,1.17c-1.54,0-2.31-.92-2.31-2.75v-3.88H428v3.71c0,1.31.5,2,1.51,2a1.48,1.48,0,0,0,1.21-.55,2.11,2.11,0,0,0,.47-1.4v-3.73h1.15Z"/><path d="M442.87,107.83h-4.79V98.75h1.18v8h3.61Z"/><path d="M444,99.06a.69.69,0,0,1,.2-.51.7.7,0,0,1,.52-.21.72.72,0,0,1,.52.21.68.68,0,0,1,.21.51.66.66,0,0,1-.21.51.71.71,0,0,1-.52.2.69.69,0,0,1-.52-.2A.66.66,0,0,1,444,99.06Zm.13,8.77v-6.48h1.15v6.48Z"/><path d="M452.77,107.83h-1.14v-3.69c0-1.33-.49-2-1.46-2a1.57,1.57,0,0,0-1.25.56,2.1,2.1,0,0,0-.48,1.42v3.7h-1.15v-6.48h1.15v1.07h0a2.33,2.33,0,0,1,2.13-1.22,2,2,0,0,1,1.62.68,3.08,3.08,0,0,1,.56,2Z"/><path d="M460,107.83h-1.15v-1h0a2.15,2.15,0,0,1-2,1.17c-1.54,0-2.31-.92-2.31-2.75v-3.88h1.14v3.71c0,1.31.51,2,1.51,2a1.51,1.51,0,0,0,1.22-.55,2.16,2.16,0,0,0,.46-1.4v-3.73H460Z"/><path d="M467,101.35l-2.17,3.26,2.14,3.22h-1.33l-1.24-2.06c-.07-.11-.16-.28-.28-.51h0s-.11.19-.3.51l-1.26,2.06h-1.31l2.2-3.18-2.11-3.3h1.34l1.21,2.17a5.56,5.56,0,0,1,.27.51h0l1.57-2.68Z"/><path d="M417.75,67.71h3.15v8.65h-2.3v.75h-.85Zm2.29.82H418.6v3H420Zm0,7V72.37H418.6v3.17Zm1.13-2.6H422V68.8h2.46V66.71h.87V68.8h2.48v4.14h.85v.82h-3.21a6.32,6.32,0,0,0,3.37,3.44c-.23.24-.49.54-.77.88a7.27,7.27,0,0,1-3.23-3.76,7.94,7.94,0,0,1-3.27,3.93,5.1,5.1,0,0,0-.68-.78,6.88,6.88,0,0,0,3.22-3.71h-2.88Zm3.08,0a19,19,0,0,0,.16-3.32h-1.59v3.32Zm1-3.32a27.18,27.18,0,0,1-.14,3.32h1.76V69.62Z"/><path d="M429.1,72.34a20.84,20.84,0,0,0,2.52-5.68l.88.22c-.37,1.09-.75,2.1-1.16,3v8.29h-.82V71.57a18.4,18.4,0,0,1-1,1.73A10,10,0,0,0,429.1,72.34Zm10.42-.06.61.65c-.48.32-1,.65-1.53,1a5.51,5.51,0,0,0,2.19,2.76,6.1,6.1,0,0,0-.78.72,7.63,7.63,0,0,1-2.07-3.1l-.56.3a5.52,5.52,0,0,1,.2,1.52c0,1.34-.63,2-1.83,2l-1.15,0c-.06-.3-.12-.59-.2-.86q.93.09,1.29.09c.69,0,1.05-.39,1.08-1.22a6,6,0,0,0-.07-.84,15.7,15.7,0,0,1-4.16,2.59,9,9,0,0,0-.54-.73,12.59,12.59,0,0,0,4.49-2.67c-.08-.21-.18-.43-.28-.63a13.58,13.58,0,0,1-3.74,2.31,8.33,8.33,0,0,0-.54-.71,11.34,11.34,0,0,0,3.89-2.21,5.32,5.32,0,0,0-.37-.46,14.42,14.42,0,0,1-3,1.66c-.18-.24-.36-.46-.54-.67a11.41,11.41,0,0,0,3.25-1.76h-1.33v.27H433V69.93c-.22.18-.43.37-.66.55a5.85,5.85,0,0,0-.49-.75,14.29,14.29,0,0,0,3-3.06h1c-.21.31-.43.61-.66.91h3.3v.69l-1.06,1.09H440v2.56h-3.75l-.23.26a6.13,6.13,0,0,1,1.12,1.69A20.39,20.39,0,0,0,439.52,72.28Zm-2.12-4h-2.77c-.31.36-.65.71-1,1h2.81Zm-3.56,2.88h1.94a3.15,3.15,0,0,0,.4-1.1h-2.34Zm5.35,0v-1.1H437a4.88,4.88,0,0,1-.35,1.1Z"/><path d="M194.78,202.63v-9.07h2.59a5,5,0,0,1,3.43,1.2,4.07,4.07,0,0,1,1.37,3.22,4.4,4.4,0,0,1-1.37,3.38,5,5,0,0,1-3.52,1.27Zm1.17-8v7h1.32a3.72,3.72,0,0,0,2.7-.95,3.54,3.54,0,0,0,1-2.64,3.16,3.16,0,0,0-1-2.55,3.88,3.88,0,0,0-2.62-.86Z"/><path d="M203.34,199.46a3.48,3.48,0,0,1,.9-2.53,3.21,3.21,0,0,1,2.43-.93,3,3,0,0,1,2.29.89,3.51,3.51,0,0,1,.83,2.47,3.47,3.47,0,0,1-.89,2.48,3.1,3.1,0,0,1-2.37.95,3,3,0,0,1-2.32-.92A3.35,3.35,0,0,1,203.34,199.46Zm1.17,0a2.57,2.57,0,0,0,.57,1.76,1.91,1.91,0,0,0,1.52.65,1.84,1.84,0,0,0,1.5-.63,3.48,3.48,0,0,0,0-3.63,1.84,1.84,0,0,0-1.5-.63,1.89,1.89,0,0,0-1.53.66A2.75,2.75,0,0,0,204.51,199.43Z"/><path d="M215.88,202.34a3.4,3.4,0,0,1-1.79.45,3,3,0,0,1-2.27-.91,3.25,3.25,0,0,1-.85-2.33,3.6,3.6,0,0,1,.92-2.57,3.25,3.25,0,0,1,2.47-1,3.42,3.42,0,0,1,1.53.32v1.13a2.57,2.57,0,0,0-1.53-.5,2.08,2.08,0,0,0-1.6.68,2.62,2.62,0,0,0-.62,1.82,2.51,2.51,0,0,0,.58,1.75,2,2,0,0,0,1.58.64,2.66,2.66,0,0,0,1.58-.55Z"/><path d="M222.93,202.63h-1.57l-2.77-3.12h0v3.12h-1.15V193h1.15v6.08h0l2.63-3h1.48l-2.93,3.12Z"/><path d="M229,199.69h-4.54a2.33,2.33,0,0,0,.57,1.6,2,2,0,0,0,1.5.56,3.22,3.22,0,0,0,2-.69v1a3.86,3.86,0,0,1-2.27.61,2.8,2.8,0,0,1-2.19-.89,3.6,3.6,0,0,1-.79-2.48,3.51,3.51,0,0,1,.87-2.45,2.73,2.73,0,0,1,2.14-1,2.49,2.49,0,0,1,2,.82,3.34,3.34,0,0,1,.72,2.29Zm-1.15-.92a2.1,2.1,0,0,0-.42-1.36,1.43,1.43,0,0,0-1.15-.48,1.6,1.6,0,0,0-1.19.51,2.41,2.41,0,0,0-.63,1.33Z"/><path d="M234,197.29a1.32,1.32,0,0,0-.79-.21,1.29,1.29,0,0,0-1.1.63,2.82,2.82,0,0,0-.44,1.64v3.28H230.5v-6.48h1.15v1.32h0a1.77,1.77,0,0,1,1.7-1.43,1.58,1.58,0,0,1,.6.09Z"/><path d="M241.62,194.87l.86.36c-.18.23-.36.44-.54.65h5.4v.74a8.5,8.5,0,0,1-2.58,1.95,16.62,16.62,0,0,0,4.75.61c-.21.31-.41.62-.59.95a17.18,17.18,0,0,1-5.2-1.09,22.78,22.78,0,0,1-5.57,1.33,5.64,5.64,0,0,0-.49-.85,23.71,23.71,0,0,0,5-1,6.2,6.2,0,0,1-1.83-1.54,14.15,14.15,0,0,1-1.82,1.51,7,7,0,0,0-.61-.63A12.23,12.23,0,0,0,241.62,194.87Zm-3.21-.82h5.06c-.22-.32-.47-.67-.77-1l.79-.51c.32.36.64.76,1,1.2l-.54.34h5v2.19H248v-1.42h-8.74v1.41h-.87Zm1.4,6.39h7.65v3.72h-.87v-.49h-5.91v.49h-.87Zm6.78.75h-5.91v1.73h5.91Zm-.49-4.56h-4.49a6,6,0,0,0,2.08,1.53A7.93,7.93,0,0,0,246.1,196.63Z"/><path d="M254.72,193l.84-.5c.38.44.75.93,1.12,1.45l-.58.36h4.38v5.2h-.94v-.61h-7.4a9.3,9.3,0,0,1-1.74,5.39c-.21-.26-.44-.52-.68-.78a8.49,8.49,0,0,0,1.5-5.48v-3.72h4.47C255.4,193.92,255.08,193.48,254.72,193Zm-2.57,2.16v2.89h7.39V195.2Z"/><path d="M265.53,196.67c-.15,1.16-.43,2.78-.84,4.87.41-.09.78-.17,1.12-.26a7.5,7.5,0,0,0,0,.83c-.88.22-2.17.5-3.87.85l-.17-.88,2.14-.38c.38-2.35.64-4.08.77-5.18ZM261.9,195h4v.76h-4Zm.16,1.84.79-.18c.26,1.12.52,2.49.78,4.12l-.81.21A40.69,40.69,0,0,0,262.06,196.84Zm.81-3.75.71-.42a11.2,11.2,0,0,1,1.18,1.75l-.77.47A16.69,16.69,0,0,0,262.87,193.09Zm3,4h7.59v.76h-3.52l-.32,1.28h3.29V203c0,.67-.3,1-.9,1h-.85a4,4,0,0,0-.24-.86q.41,0,.81,0c.24,0,.35-.12.35-.36v-3h-1.2v3.68h-.79v-3.68h-1.16v3.61h-.78v-3.61H267v4.28h-.82v-5h2.61l.27-1.28h-3.17Zm5.9-.77V196h-5.3v-2.64h.82v1.92h1.82V192.6h.84v2.65h1.82v-1.92h.82v3Z"/><path d="M216.49,144.15h-1.38l-1.51-2.52a3.41,3.41,0,0,0-.82-1,1.5,1.5,0,0,0-.9-.27H211v3.82h-1.17v-9.08h2.76a3.1,3.1,0,0,1,2.08.64,2.21,2.21,0,0,1,.75,1.79,2.41,2.41,0,0,1-2,2.45v0a1.88,1.88,0,0,1,.65.46,6.84,6.84,0,0,1,.7,1ZM211,136.1v3.2h1.38a1.82,1.82,0,0,0,1.3-.47,1.58,1.58,0,0,0,.51-1.23,1.42,1.42,0,0,0-.46-1.11,2,2,0,0,0-1.33-.39Z"/><path d="M222.58,144.15H217.7v-9.08h4.68v1h-3.51V139h3.25v1h-3.25v3.05h3.71Z"/><path d="M223.88,142.44a3.22,3.22,0,0,0,1.11.6,4,4,0,0,0,1.32.23c1.28,0,1.91-.45,1.91-1.36a1.16,1.16,0,0,0-.2-.68,2.22,2.22,0,0,0-.56-.54,13.17,13.17,0,0,0-1.35-.72,5.1,5.1,0,0,1-1.79-1.26,2.2,2.2,0,0,1-.44-1.34,2.09,2.09,0,0,1,.91-1.79,3.81,3.81,0,0,1,2.29-.66,4.53,4.53,0,0,1,2,.33v1.27A3.57,3.57,0,0,0,227,136a2.41,2.41,0,0,0-1.35.34,1.12,1.12,0,0,0-.53,1,1.16,1.16,0,0,0,.37.9,7.2,7.2,0,0,0,1.57.94,5.55,5.55,0,0,1,1.87,1.28,2.16,2.16,0,0,1,.53,1.44,2.14,2.14,0,0,1-.86,1.83,4,4,0,0,1-2.41.64,6.28,6.28,0,0,1-1.26-.15,2.9,2.9,0,0,1-1-.37Z"/><path d="M236.71,136.11h-2.62v8h-1.18v-8H230.3v-1h6.41Z"/><path d="M248.78,144.15h-1.29l-.93-2.49h-3.78l-.87,2.49h-1.29l3.45-9.08h1.26Zm-2.58-3.51-1.37-3.78a4.54,4.54,0,0,1-.14-.63h0a2.92,2.92,0,0,1-.15.63l-1.36,3.78Z"/><path d="M251.27,140.75v3.4H250.1v-9.08h2.57a3.37,3.37,0,0,1,2.29.71,2.55,2.55,0,0,1,.81,2,2.73,2.73,0,0,1-1,2.16,3.26,3.26,0,0,1-2.37.78Zm0-4.65v3.62h1.08a2.42,2.42,0,0,0,1.63-.48,1.74,1.74,0,0,0,.56-1.39c0-1.16-.69-1.75-2.08-1.75Z"/><path d="M258.61,135.07v9.08h-1.17v-9.08Z"/><path d="M195.39,82.8V73.73H198a5,5,0,0,1,3.43,1.2,4.07,4.07,0,0,1,1.37,3.22,4.39,4.39,0,0,1-1.37,3.38,5,5,0,0,1-3.52,1.27Zm1.17-8v7h1.32a3.72,3.72,0,0,0,2.7-1,3.53,3.53,0,0,0,1-2.64,3.16,3.16,0,0,0-1-2.55,3.88,3.88,0,0,0-2.62-.86Z"/><path d="M204,79.63a3.48,3.48,0,0,1,.9-2.53,3.19,3.19,0,0,1,2.43-.93,3,3,0,0,1,2.29.9,4,4,0,0,1-.06,4.94,3.1,3.1,0,0,1-2.37.95,3,3,0,0,1-2.32-.92A3.35,3.35,0,0,1,204,79.63Zm1.17,0a2.55,2.55,0,0,0,.57,1.76,1.91,1.91,0,0,0,1.52.65,1.84,1.84,0,0,0,1.5-.63,2.81,2.81,0,0,0,.51-1.81,2.86,2.86,0,0,0-.51-1.82,1.84,1.84,0,0,0-1.5-.63,1.89,1.89,0,0,0-1.53.66A2.75,2.75,0,0,0,205.12,79.6Z"/><path d="M216.49,82.51a3.4,3.4,0,0,1-1.79.45,3,3,0,0,1-2.27-.91,3.25,3.25,0,0,1-.85-2.33,3.6,3.6,0,0,1,.92-2.57,3.25,3.25,0,0,1,2.47-1,3.42,3.42,0,0,1,1.53.32v1.14a2.51,2.51,0,0,0-1.53-.51,2.08,2.08,0,0,0-1.6.68,2.64,2.64,0,0,0-.62,1.82,2.56,2.56,0,0,0,.58,1.76,2.06,2.06,0,0,0,1.58.63,2.66,2.66,0,0,0,1.58-.55Z"/><path d="M223.54,82.8H222l-2.77-3.12h0V82.8H218V73.21h1.15v6.08h0l2.63-3h1.48l-2.93,3.12Z"/><path d="M229.58,79.86h-4.53a2.33,2.33,0,0,0,.57,1.6,2,2,0,0,0,1.5.57,3.23,3.23,0,0,0,2-.7v1a3.79,3.79,0,0,1-2.27.61,2.8,2.8,0,0,1-2.19-.89,3.6,3.6,0,0,1-.79-2.48,3.51,3.51,0,0,1,.87-2.45,2.73,2.73,0,0,1,2.14-1,2.49,2.49,0,0,1,2,.82,3.34,3.34,0,0,1,.71,2.29Zm-1.14-.92a2.1,2.1,0,0,0-.42-1.36,1.43,1.43,0,0,0-1.15-.48,1.6,1.6,0,0,0-1.19.51,2.41,2.41,0,0,0-.63,1.33Z"/><path d="M234.59,77.46a1.32,1.32,0,0,0-.79-.2,1.28,1.28,0,0,0-1.1.62,2.82,2.82,0,0,0-.44,1.64V82.8h-1.15V76.32h1.15v1.32h0a1.77,1.77,0,0,1,1.7-1.43,1.58,1.58,0,0,1,.6.09Z"/><path d="M239.23,73.49h3.3V83c0,.78-.36,1.17-1.09,1.17-.39,0-.77,0-1.11,0,0-.23-.08-.51-.14-.83a6,6,0,0,0,1,.1.42.42,0,0,0,.48-.48v-2.7h-1.64a6.91,6.91,0,0,1-1,4.11,4,4,0,0,0-.65-.65,6.23,6.23,0,0,0,.79-3.42Zm2.47.77h-1.64v2.25h1.64Zm-1.64,5.23h1.64V77.23h-1.64Zm3.45-5.95h5.79c0,.63-.07,1.13-.1,1.5a1.63,1.63,0,0,1-1.85,1.78l-1.51,0-.15-.93c.57.07,1.09.11,1.56.13a.93.93,0,0,0,1.08-1,6.67,6.67,0,0,0,.06-.67h-4v3.37h4.94v.7A8.58,8.58,0,0,1,247.63,82a7,7,0,0,0,2.51,1.49c-.27.31-.49.59-.68.84A8.36,8.36,0,0,1,247,82.66a9.71,9.71,0,0,1-2.11,1.56q-.22-.39-.48-.78a8,8,0,0,0,2-1.43,7.79,7.79,0,0,1-1.5-3.52h-.55v5.82h-.89Zm4.91,4.95h-2.67a6.82,6.82,0,0,0,1.3,2.87A7.57,7.57,0,0,0,248.42,78.49Z"/><path d="M253.78,72.7l.88.37c-.17.29-.36.57-.55.85h6.34v.78a9.47,9.47,0,0,1-3,2.32,17,17,0,0,0,4.69.88c-.25.35-.47.68-.65,1a17.34,17.34,0,0,1-5.12-1.36,25.77,25.77,0,0,1-5.63,1.56c-.13-.24-.29-.51-.48-.82a25,25,0,0,0,5.1-1.27,7.3,7.3,0,0,1-2.14-1.93,17.26,17.26,0,0,1-2,2c-.23-.25-.45-.46-.65-.64A11.58,11.58,0,0,0,253.78,72.7Zm-2.46,6.86h3.41c.06-.37.1-.8.14-1.26h.95c0,.46-.1.89-.15,1.26h4.72c-.07,1.4-.15,2.38-.22,3a1.74,1.74,0,0,1-2,1.66c-.46,0-1.15,0-2.07,0-.05-.29-.11-.61-.18-1,.9.08,1.64.12,2.23.13a1,1,0,0,0,1.1-1c.07-.58.12-1.21.15-1.87h-3.91q-.61,2.82-4.36,4.09c-.18-.26-.37-.52-.58-.79q3.38-1.1,4-3.3h-3.25Zm7.88-4.87H254a7.27,7.27,0,0,0,2.42,1.86A10.18,10.18,0,0,0,259.2,74.69Z"/><path d="M262.78,77.76h4.74a3.33,3.33,0,0,0,.23-1l.85.12a5.42,5.42,0,0,1-.21.9H271c-.32-.23-.65-.45-1-.67l.48-.53c.51.31,1,.61,1.39.92l-.26.28h2.18v.77h-4.52c.9.89,2.5,1.3,4.8,1.26q-.27.48-.48.9l-.59,0v3.58h-.82v-.65h-2.51v.64h-.82V80.58h3.73q-3.35-.45-4.28-2h-.21c-.44.93-1.86,1.62-4.26,2h3.75v3.63h-.82v-.64h-2.47v.65h-.82V80.65l-.65.12c-.11-.23-.27-.51-.45-.83,2.61-.34,4.17-.81,4.7-1.41h-4.25Zm.64-4.27h4.11V76.9h-.82v-.36h-2.47V77h-.82Zm3.29.73h-2.47v1.59h2.47Zm0,7.09h-2.47v1.54h2.47Zm2.08-7.82h4.14V77h-.82v-.41h-2.5v.36h-.82Zm3.32.73h-2.5v1.59h2.5Zm0,7.09h-2.51v1.54h2.51Z"/><path d="M177.73,46V36.9h3.14q4.83,0,4.83,4.42a4.42,4.42,0,0,1-1.35,3.38,4.92,4.92,0,0,1-3.5,1.28Zm1.94-7.5v5.91h1.05a2.83,2.83,0,0,0,2.16-.82,3,3,0,0,0,.79-2.22,2.76,2.76,0,0,0-.82-2.11,3,3,0,0,0-2.14-.76Z"/><path d="M186.66,42.76a3.3,3.3,0,0,1,1-2.51,3.58,3.58,0,0,1,2.58-.91,3.39,3.39,0,0,1,2.48.9,3.19,3.19,0,0,1,.92,2.41,3.24,3.24,0,0,1-3.5,3.48,3.46,3.46,0,0,1-2.51-.9A3.28,3.28,0,0,1,186.66,42.76Zm1.91,0c0,1.29.53,1.94,1.58,1.94s1.52-.66,1.52-2-.51-1.9-1.53-1.9a1.43,1.43,0,0,0-1.16.51A2.26,2.26,0,0,0,188.57,42.74Z"/><path d="M199.79,45.74a4,4,0,0,1-1.94.39,3.25,3.25,0,0,1-2.39-.9,3.14,3.14,0,0,1-.92-2.34,3.43,3.43,0,0,1,1-2.6,3.58,3.58,0,0,1,2.62-.95,3.44,3.44,0,0,1,1.64.3v1.62a2.37,2.37,0,0,0-1.42-.47,1.89,1.89,0,0,0-1.39.53,1.94,1.94,0,0,0-.52,1.44,1.9,1.9,0,0,0,.5,1.41,1.79,1.79,0,0,0,1.35.51,2.65,2.65,0,0,0,1.48-.48Z"/><path d="M207.5,46h-2.3L203,42.77h0V46h-1.89v-9.6H203v6.11h0l2-3h2.25l-2.4,3Z"/><path d="M213.85,43.27h-4.27c.07,1,.67,1.5,1.82,1.5a3.42,3.42,0,0,0,1.89-.52v1.39a4.73,4.73,0,0,1-2.32.49,3.21,3.21,0,0,1-2.4-.87,3.28,3.28,0,0,1-.86-2.43,3.5,3.5,0,0,1,.91-2.52,3,3,0,0,1,2.3-1,2.81,2.81,0,0,1,2.15.83,3.24,3.24,0,0,1,.78,2.3Zm-1.77-1.19c0-1-.39-1.45-1.17-1.45a1.13,1.13,0,0,0-.86.4,1.89,1.89,0,0,0-.47,1Z"/><path d="M219.21,41.21a1.68,1.68,0,0,0-.84-.2,1.23,1.23,0,0,0-1,.49,2.2,2.2,0,0,0-.38,1.36V46h-1.89V39.5H217v1.21h0a1.73,1.73,0,0,1,1.7-1.33,1.36,1.36,0,0,1,.51.08Z"/><path d="M225.41,42.24h4.41l-.2,3a2.9,2.9,0,0,1-.36,1.29,1.57,1.57,0,0,1-.86.68,14.83,14.83,0,0,1-3.26.19c-.14-.59-.3-1.16-.48-1.69.59,0,1.18,0,1.77,0a2.72,2.72,0,0,0,1-.11.59.59,0,0,0,.35-.36,9.64,9.64,0,0,0,.17-1.56h-4.38l.38-4.31h4.13V38.11h-4.47V36.59h6.19V41H225.5Zm6.41-6h1.72V47.43h-1.72Z"/><path d="M239.1,41.76c0-.23-.12-.52-.2-.88v.61H236V40l-.54.62c-.21-.41-.4-.74-.55-1a9,9,0,0,0,1.31-1.7h.5v-.32h-1.51v-.91h1.51V36h1.13v.69h1.17V36h1.12v.69h1.32v.91h-1.32v.48h-1.12v-.48h-1.17v.48h-.57l-.15.27H241v.53A9.46,9.46,0,0,0,242.31,36l1.15.14c-.08.27-.16.54-.25.81h3.39V38h-.52A4.94,4.94,0,0,1,245,39.93a5.64,5.64,0,0,0,1.79.6c-.16.35-.34.75-.52,1.2a6.79,6.79,0,0,1-2.22-1,7.36,7.36,0,0,1-2.39,1,8.7,8.7,0,0,0-.54-1.13,7,7,0,0,0,2-.69,7.13,7.13,0,0,1-.75-1c-.13.24-.27.48-.41.72-.32-.3-.62-.56-.9-.79,0,1.09-.05,1.73-.07,1.93a1.06,1.06,0,0,1-.21.53.86.86,0,0,1-.46.32A5.88,5.88,0,0,1,239.1,41.76Zm-3.82,3.1h5.13V44.4h-4.34v-1h4.34v-.51L236,43c-.06-.31-.13-.64-.22-1,3.36,0,6.69-.11,10-.26l.22,1.06-4,.08v.54h3.84v1h-3.84v.46h4.71v1h-4.71V46a1.57,1.57,0,0,1-.31,1,1.28,1.28,0,0,1-1,.43c-.49,0-1.14,0-2,0a10.85,10.85,0,0,0-.29-1.26,10,10,0,0,0,1.22.07,1.56,1.56,0,0,0,.65-.09.43.43,0,0,0,.22-.34h-5.11Zm4.63-5.63h-3.32l-.3.41h2.61v1l.55,0c.25,0,.39-.1.42-.31S239.91,39.81,239.91,39.23Zm-2,1.62v-.56H237v.56ZM244,39.24a3.36,3.36,0,0,0,.82-1.25H243A5.07,5.07,0,0,0,244,39.24Z"/><path d="M61.61,151H60.22L55.66,144a3.83,3.83,0,0,1-.32-.59h0a10.64,10.64,0,0,1,0,1.27V151H54.2v-9.07h1.47l4.44,6.93a6.47,6.47,0,0,1,.37.63h0a9.92,9.92,0,0,1-.06-1.32v-6.24h1.16Z"/><path d="M69.43,150.47c0,2.4-1.16,3.59-3.49,3.59a4.58,4.58,0,0,1-2.1-.45v-1.1a4.3,4.3,0,0,0,2.08.6c1.58,0,2.36-.83,2.36-2.48v-.69h0a2.4,2.4,0,0,1-2.2,1.22,2.43,2.43,0,0,1-2-.87,3.51,3.51,0,0,1-.73-2.31,4,4,0,0,1,.81-2.63,2.66,2.66,0,0,1,2.16-1,2.09,2.09,0,0,1,1.92,1h0v-.88h1.15Zm-1.15-3.31a1.76,1.76,0,0,0-.5-1.29,1.66,1.66,0,0,0-1.26-.54,1.7,1.7,0,0,0-1.45.69,3.05,3.05,0,0,0-.53,1.89,2.62,2.62,0,0,0,.51,1.67,1.61,1.61,0,0,0,1.33.63,1.74,1.74,0,0,0,1.37-.6,2.22,2.22,0,0,0,.53-1.55Z"/><path d="M71.34,142.25a.7.7,0,0,1,.21-.52.69.69,0,0,1,.51-.2.73.73,0,0,1,.53.2.7.7,0,0,1,.21.52.66.66,0,0,1-.21.5.74.74,0,0,1-.53.21.66.66,0,0,1-.51-.21A.66.66,0,0,1,71.34,142.25Zm.14,8.76v-6.48h1.14V151Z"/><path d="M80.15,151H79v-3.68c0-1.34-.49-2-1.46-2a1.58,1.58,0,0,0-1.24.56,2.13,2.13,0,0,0-.49,1.42V151H74.67v-6.48h1.15v1.07h0A2.33,2.33,0,0,1,78,144.38a2,2,0,0,1,1.63.68,3.1,3.1,0,0,1,.55,2Z"/><path d="M87,144.53l-2.16,3.26L86.94,151H85.61L84.37,149l-.28-.5h0s-.1.19-.3.5L82.51,151H81.2l2.2-3.18-2.1-3.3h1.33l1.21,2.17a5.56,5.56,0,0,1,.27.51h0l1.57-2.68Z"/><path d="M55.69,97.23l-2.54,9.07H51.78L50,99.77a4.1,4.1,0,0,1-.14-.94h0a3.94,3.94,0,0,1-.16.92l-1.85,6.55H46.42l-2.63-9.07h1.29l1.86,6.85a4.27,4.27,0,0,1,.14.94h0a5.16,5.16,0,0,1,.19-.94l2-6.85h1.16l1.87,6.91a4.75,4.75,0,0,1,.16.86h0a4.42,4.42,0,0,1,.17-.89l1.78-6.88Z"/><path d="M56.73,97.54a.71.71,0,0,1,.2-.51.7.7,0,0,1,.52-.21A.75.75,0,0,1,58,97a.71.71,0,0,1,0,1,.75.75,0,0,1-.52.2.73.73,0,0,1-.52-.2A.69.69,0,0,1,56.73,97.54Zm.13,8.76V99.82H58v6.48Z"/><path d="M65.54,106.3H64.4v-3.68c0-1.33-.49-2-1.46-2a1.56,1.56,0,0,0-1.24.56,2.09,2.09,0,0,0-.49,1.43v3.69H60.06V99.82h1.15v1.08h0a2.34,2.34,0,0,1,2.13-1.23,2,2,0,0,1,1.62.68,3.1,3.1,0,0,1,.56,2Z"/><path d="M73.08,106.3H71.93v-1.07h0a2.37,2.37,0,0,1-2.2,1.23,2.41,2.41,0,0,1-2-.88,3.54,3.54,0,0,1-.73-2.36,3.86,3.86,0,0,1,.82-2.58,2.67,2.67,0,0,1,2.15-1,2.07,2.07,0,0,1,1.92,1h0v-4h1.15Zm-1.14-3.85a1.74,1.74,0,0,0-.52-1.3,1.69,1.69,0,0,0-1.26-.53,1.73,1.73,0,0,0-1.44.68,3,3,0,0,0-.53,1.86,2.65,2.65,0,0,0,.51,1.72,1.65,1.65,0,0,0,1.35.63,1.7,1.7,0,0,0,1.36-.62,2.3,2.3,0,0,0,.53-1.54Z"/><path d="M74.7,103.13a3.52,3.52,0,0,1,.89-2.53A3.23,3.23,0,0,1,78,99.67a3,3,0,0,1,2.28.89,4,4,0,0,1,0,5,3.1,3.1,0,0,1-2.38.95,3.06,3.06,0,0,1-2.32-.92A3.38,3.38,0,0,1,74.7,103.13Zm1.17,0a2.6,2.6,0,0,0,.56,1.76,1.94,1.94,0,0,0,1.53.65,1.84,1.84,0,0,0,1.5-.63,2.83,2.83,0,0,0,.51-1.81,2.86,2.86,0,0,0-.51-1.82,1.84,1.84,0,0,0-1.5-.63,1.89,1.89,0,0,0-1.53.66A2.75,2.75,0,0,0,75.87,103.1Z"/><path d="M91.06,99.82l-1.93,6.48h-1.2l-1.29-4.54a3.21,3.21,0,0,1-.1-.62h0a3.36,3.36,0,0,1-.14.61L85,106.3H83.83l-2-6.48h1.2l1.29,4.81a3.21,3.21,0,0,1,.09.59h.05a2.44,2.44,0,0,1,.11-.61L86,99.82h1.06l1.36,4.81a4.09,4.09,0,0,1,.1.6h0a3.11,3.11,0,0,1,.1-.6L90,99.82Z"/><path d="M91.87,104.9a3.12,3.12,0,0,0,1.87.63c.89,0,1.34-.29,1.34-.88a.8.8,0,0,0-.29-.62,4.68,4.68,0,0,0-1.19-.57,3.39,3.39,0,0,1-1.4-.86,1.64,1.64,0,0,1-.32-1,1.62,1.62,0,0,1,.73-1.38,3,3,0,0,1,1.79-.52,4.14,4.14,0,0,1,1.54.29v1.11a2.94,2.94,0,0,0-1.65-.47,1.57,1.57,0,0,0-.9.24.79.79,0,0,0-.09,1.23,4.19,4.19,0,0,0,1.1.56,3.74,3.74,0,0,1,1.47.84,1.57,1.57,0,0,1,.38,1.07,1.64,1.64,0,0,1-.73,1.4,3.17,3.17,0,0,1-1.89.52,3.9,3.9,0,0,1-1.76-.38Z"/><path d="M39.13,57.68q0,3.85-3.49,3.85t-3.35-3.72V52.3h1.17v5.46c0,1.82.77,2.73,2.29,2.73S38,59.61,38,57.85V52.3h1.17Z"/><path d="M42.37,60.46v.92H41.22V51.79h1.15V56h0a2.45,2.45,0,0,1,2.23-1.28,2.39,2.39,0,0,1,1.93.86A3.57,3.57,0,0,1,47.27,58a4,4,0,0,1-.81,2.61,2.62,2.62,0,0,1-2.14,1,2.13,2.13,0,0,1-1.93-1.07Zm0-1.75A1.87,1.87,0,0,0,42.87,60a1.8,1.8,0,0,0,2.71-.16,3.27,3.27,0,0,0,.51-2,2.55,2.55,0,0,0-.48-1.63,1.6,1.6,0,0,0-1.31-.61,1.8,1.8,0,0,0-1.39.61,2.16,2.16,0,0,0-.55,1.53Z"/><path d="M54.23,61.38H53.08v-1h0a2.14,2.14,0,0,1-2,1.17c-1.53,0-2.3-.92-2.3-2.75V54.9h1.14v3.71c0,1.31.5,2,1.51,2A1.5,1.5,0,0,0,52.61,60a2.11,2.11,0,0,0,.47-1.4V54.9h1.15Z"/><path d="M61.75,61.38H60.61V57.69c0-1.33-.48-2-1.46-2a1.56,1.56,0,0,0-1.24.57,2.11,2.11,0,0,0-.49,1.42v3.7H56.28V54.9h1.14V56h0a2.33,2.33,0,0,1,2.12-1.23,2,2,0,0,1,1.63.69,3.09,3.09,0,0,1,.55,2Z"/><path d="M66.78,61.31a2.08,2.08,0,0,1-1,.21c-1.16,0-1.74-.64-1.74-1.93V55.85H62.91v-1H64V53.34L65.17,53V54.9h1.61v1H65.17v3.54a1.45,1.45,0,0,0,.22.91.86.86,0,0,0,.72.27,1.09,1.09,0,0,0,.67-.21Z"/><path d="M73.49,61.38H72.34v-1h0a2.14,2.14,0,0,1-2,1.17c-1.53,0-2.3-.92-2.3-2.75V54.9h1.14v3.71c0,1.31.5,2,1.51,2A1.5,1.5,0,0,0,71.87,60a2.11,2.11,0,0,0,.47-1.4V54.9h1.15Z"/><path d="M84,61.38H79.23V52.3H80.4v8H84Z"/><path d="M85.1,52.61a.72.72,0,0,1,.72-.72.72.72,0,0,1,.53.21.66.66,0,0,1,.21.51.69.69,0,0,1-.21.51.76.76,0,0,1-.53.2.73.73,0,0,1-.51-.2A.69.69,0,0,1,85.1,52.61Zm.14,8.77V54.9h1.15v6.48Z"/><path d="M93.92,61.38H92.77V57.69c0-1.33-.48-2-1.46-2a1.57,1.57,0,0,0-1.24.57,2.1,2.1,0,0,0-.48,1.42v3.7H88.44V54.9h1.15V56h0a2.34,2.34,0,0,1,2.13-1.23,2,2,0,0,1,1.62.69,3.08,3.08,0,0,1,.56,2Z"/><path d="M101.18,61.38H100v-1h0a2.13,2.13,0,0,1-2,1.17c-1.54,0-2.31-.92-2.31-2.75V54.9h1.14v3.71c0,1.31.5,2,1.51,2A1.48,1.48,0,0,0,99.56,60a2.11,2.11,0,0,0,.47-1.4V54.9h1.15Z"/><path d="M108.13,54.9,106,58.16l2.14,3.22h-1.33l-1.24-2.07a5.33,5.33,0,0,1-.28-.5h0a4.72,4.72,0,0,1-.29.5l-1.26,2.07h-1.32l2.21-3.18-2.11-3.3h1.34L105,57.06c.08.14.17.31.27.52h0l1.58-2.68Z"/><path d="M35.75,18.49V9.41h3.13q4.84,0,4.84,4.43a4.39,4.39,0,0,1-1.36,3.37,4.87,4.87,0,0,1-3.49,1.28ZM37.68,11v5.92h1.06a2.86,2.86,0,0,0,2.16-.82,3.11,3.11,0,0,0,.79-2.23,2.73,2.73,0,0,0-.83-2.11A3,3,0,0,0,38.73,11Z"/><path d="M44.67,15.28a3.32,3.32,0,0,1,1-2.52,3.58,3.58,0,0,1,2.58-.91,3.39,3.39,0,0,1,2.48.9,3.23,3.23,0,0,1,.92,2.42,3.41,3.41,0,0,1-.94,2.53,3.92,3.92,0,0,1-5.07,0A3.26,3.26,0,0,1,44.67,15.28Zm1.92,0c0,1.3.53,1.94,1.58,1.94s1.52-.66,1.52-2-.51-1.9-1.53-1.9a1.41,1.41,0,0,0-1.16.51A2.26,2.26,0,0,0,46.59,15.25Z"/><path d="M57.8,18.25a3.88,3.88,0,0,1-1.93.4,3.24,3.24,0,0,1-2.4-.91,3.13,3.13,0,0,1-.91-2.33,3.48,3.48,0,0,1,1-2.61,3.66,3.66,0,0,1,2.63-1,3.47,3.47,0,0,1,1.64.3v1.63a2.34,2.34,0,0,0-1.42-.48,1.88,1.88,0,0,0-1.39.53,2,2,0,0,0-.52,1.45,1.93,1.93,0,0,0,.49,1.4,1.83,1.83,0,0,0,1.36.51,2.62,2.62,0,0,0,1.47-.48Z"/><path d="M65.52,18.49h-2.3l-2.16-3.21h0v3.21H59.15V8.9H61V15h0l2-3h2.26l-2.4,3.06Z"/><path d="M71.87,15.78H67.6c.07,1,.67,1.51,1.82,1.51a3.45,3.45,0,0,0,1.89-.53v1.39a4.72,4.72,0,0,1-2.32.5,3.26,3.26,0,0,1-2.41-.88,3.32,3.32,0,0,1-.85-2.43,3.53,3.53,0,0,1,.91-2.52,3,3,0,0,1,2.3-1,2.82,2.82,0,0,1,2.15.83,3.25,3.25,0,0,1,.78,2.3ZM70.1,14.6c0-1-.39-1.46-1.17-1.46a1.18,1.18,0,0,0-.87.4,1.88,1.88,0,0,0-.46,1.06Z"/><path d="M77.23,13.72a1.68,1.68,0,0,0-.84-.2,1.22,1.22,0,0,0-1,.5A2.19,2.19,0,0,0,75,15.37v3.12H73.1V12H75v1.22h0a1.73,1.73,0,0,1,1.71-1.33,1.39,1.39,0,0,1,.51.07Z"/><path d="M89.68,18.49H87.75V14.74H83.88v3.75H81.94V9.41h1.94v3.66h3.87V9.41h1.93Z"/><path d="M97.67,18.49H95.79v-1h0a2.26,2.26,0,0,1-2,1.15c-1.5,0-2.26-.91-2.26-2.73V12h1.9v3.73c0,1,.37,1.45,1.13,1.45a1.13,1.13,0,0,0,.91-.4,1.56,1.56,0,0,0,.34-1.07V12h1.88Z"/><path d="M101.28,17.71v.78H99.39V8.9h1.89V13h0a2.39,2.39,0,0,1,2.13-1.15,2.32,2.32,0,0,1,1.91.85,3.62,3.62,0,0,1,.7,2.37,4,4,0,0,1-.8,2.59,2.57,2.57,0,0,1-2.11,1,2.06,2.06,0,0,1-1.83-.94Zm0-2a1.59,1.59,0,0,0,.38,1.07,1.24,1.24,0,0,0,1,.43,1.27,1.27,0,0,0,1.1-.55,2.59,2.59,0,0,0,.4-1.56,2.12,2.12,0,0,0-.36-1.31,1.22,1.22,0,0,0-1-.47,1.34,1.34,0,0,0-1,.48,1.8,1.8,0,0,0-.41,1.22Z"/><path d="M565.16,47.33V43.77c-.38.17-.77.34-1.17.5a13.87,13.87,0,0,0-.75-1.38,12.48,12.48,0,0,0,5.25-3H570l-.15.21a10.9,10.9,0,0,0,5,2.75,15.4,15.4,0,0,0-.74,1.46c-.42-.15-.83-.31-1.21-.48v3.54h-1.52v-.61h-4.75v.61Zm2.67-11.4,1.93-.24c.11.28.25.64.43,1.08h4.2v2.57h-1.7V38.12H565.4v1.22h-1.69V36.77h4.47C568.05,36.44,567.93,36.16,567.83,35.93Zm-.32,2.33.92,1.07a26.35,26.35,0,0,1-3.85,2.22c-.18-.34-.45-.79-.8-1.33A21.41,21.41,0,0,0,567.51,38.26Zm3.92,5.8h-4.75v1.35h4.75Zm-2.38-2.93a10.77,10.77,0,0,1-2,1.62h4A9.89,9.89,0,0,1,569.05,41.13Zm1.49-2.79q1.85.87,3.81,1.92l-.84,1.33a43.14,43.14,0,0,0-3.72-2.2Z"/><path d="M581.49,47.2V43.4h2.44A5.49,5.49,0,0,1,581,42a5.32,5.32,0,0,1-3.14,1.41h2.68v3.83h-1.36v-.45h-1.86v.45H576V43.65l-.52,0a8.21,8.21,0,0,0-.24-1.2c2.4-.06,3.86-.4,4.36-1h-4.21V40.29h4.77a5,5,0,0,0,.08-.59h1.64c0,.21,0,.4-.08.59h1.58l-.19-.46,1.5-.19.27.65h1.77v1.19h-4.61c.83.65,2.42,1,4.75,1-.13.44-.23.84-.3,1.21l-.48,0v3.54h-1.36v-.45h-1.88v.42Zm-5.49-11h4.59v3.31H576Zm3.22,8.38h-1.86v1h1.86Zm-.06-6.27v-.91h-1.73v.91Zm2.35-2.11h4.58v3.31h-4.58Zm3.22,8.38h-1.88v1h1.88Zm-.07-6.27v-.91H583v.91Z"/><path d="M356.17,17.83V8.75h3.14q4.83,0,4.83,4.43a4.4,4.4,0,0,1-1.35,3.37,4.92,4.92,0,0,1-3.5,1.28Zm1.93-7.5v5.92h1.06a2.86,2.86,0,0,0,2.16-.82,3.1,3.1,0,0,0,.79-2.22,2.77,2.77,0,0,0-.82-2.12,3.06,3.06,0,0,0-2.14-.76Z"/><path d="M365.09,14.62a3.32,3.32,0,0,1,1-2.52,3.63,3.63,0,0,1,2.58-.91,3.39,3.39,0,0,1,2.48.9,3.21,3.21,0,0,1,.92,2.42,3.4,3.4,0,0,1-.94,2.53,3.92,3.92,0,0,1-5.07,0A3.26,3.26,0,0,1,365.09,14.62Zm1.92,0c0,1.3.53,1.94,1.58,1.94s1.52-.66,1.52-2-.51-1.9-1.53-1.9a1.41,1.41,0,0,0-1.16.51A2.26,2.26,0,0,0,367,14.59Z"/><path d="M378.23,17.59a4,4,0,0,1-1.94.4,3.2,3.2,0,0,1-2.39-.91,3.13,3.13,0,0,1-.92-2.33,3.47,3.47,0,0,1,1-2.61,3.62,3.62,0,0,1,2.62-1,3.31,3.31,0,0,1,1.64.31v1.62a2.32,2.32,0,0,0-1.42-.48,1.89,1.89,0,0,0-1.39.53,2,2,0,0,0-.52,1.45,1.89,1.89,0,0,0,.5,1.4,1.79,1.79,0,0,0,1.35.51,2.65,2.65,0,0,0,1.48-.48Z"/><path d="M385.94,17.83h-2.3l-2.16-3.21h0v3.21h-1.89V8.24h1.89v6.1h0l2-3h2.26l-2.4,3.06Z"/><path d="M392.29,15.12H388c.07,1,.67,1.51,1.82,1.51a3.45,3.45,0,0,0,1.89-.53v1.39a4.72,4.72,0,0,1-2.32.5,3.18,3.18,0,0,1-2.4-.88,3.28,3.28,0,0,1-.86-2.43,3.53,3.53,0,0,1,.91-2.52,3,3,0,0,1,2.3-1,2.78,2.78,0,0,1,2.15.84,3.21,3.21,0,0,1,.78,2.29Zm-1.77-1.18c0-1-.39-1.45-1.17-1.45a1.15,1.15,0,0,0-.86.39,1.89,1.89,0,0,0-.47,1.06Z"/><path d="M397.65,13.07a1.58,1.58,0,0,0-.84-.2,1.21,1.21,0,0,0-1,.49,2.19,2.19,0,0,0-.38,1.35v3.12h-1.89V11.35h1.89v1.22h0a1.74,1.74,0,0,1,1.71-1.33,1.39,1.39,0,0,1,.51.07Z"/><path d="M401.58,17.38h4.85V15.19h-3.61V13.66h3.61V11.54h-4.18V10h4.55a16.88,16.88,0,0,0-.89-1.53l1.61-.72a20,20,0,0,1,1.05,1.72l-1.13.53h5v1.54H408.2v2.12h3.69v1.53H408.2v2.19h4.86V19H401.58Z"/><path d="M413.47,14.83a11.22,11.22,0,0,0,1.42-3.32h-1.31V10h1.34V7.85h1.54V10h1.36v1.56h-1.36V12.6l1.62,1-.77,1.32-.85-.6v5.06h-1.54V15.23a12.41,12.41,0,0,1-.91,1.68C413.88,16.39,413.7,15.7,413.47,14.83ZM424,14.76c.37.17.75.32,1.15.46a29.54,29.54,0,0,1-.23,3,1.14,1.14,0,0,1-.42.74,1.47,1.47,0,0,1-.81.2h-.92c-.75,0-1.12-.46-1.12-1.4V10H420v3.28a12.46,12.46,0,0,1-.41,3.75,7,7,0,0,1-1.5,2.32c-.36-.44-.77-.9-1.23-1.39a5.13,5.13,0,0,0,1.27-2.08,15.47,15.47,0,0,0,.29-3.59V8.38h4.92v8.86c0,.26.09.4.26.4a.23.23,0,0,0,.21-.1,2.63,2.63,0,0,0,.13-.77C424,16.32,424,15.65,424,14.76Z"/></svg>