<svg id="Layer_1" data-name="Layer 1" xmlns="http://www.w3.org/2000/svg" xmlns:xlink="http://www.w3.org/1999/xlink" viewBox="0 0 531.73 158"><defs><style>.cls-1{fill:#fff;}.cls-2,.cls-9{fill:#3c3c41;}.cls-2{opacity:0.15;}.cls-10,.cls-11,.cls-2,.cls-3,.cls-4,.cls-6{isolation:isolate;}.cls-3{fill:#0072c6;opacity:0.12;}.cls-4{fill:#a33a85;opacity:0.1;}.cls-11,.cls-13,.cls-19,.cls-5,.cls-7,.cls-8{fill:none;}.cls-5{stroke:#361737;}.cls-19,.cls-5,.cls-7,.cls-8{stroke-miterlimit:10;}.cls-19,.cls-5,.cls-7{stroke-width:0.25px;}.cls-10,.cls-14,.cls-6{fill:#449cdd;}.cls-6{opacity:0.5;}.cls-7{stroke:#005ba1;}.cls-8{stroke:#3c3c41;}.cls-10{opacity:0.3;}.cls-11,.cls-13{stroke:#449cdd;stroke-width:2px;}.cls-11{stroke-linecap:round;}.cls-11,.cls-12{opacity:0.4;}.cls-15{fill:url(#linear-gradient);}.cls-16{fill:url(#linear-gradient-2);}.cls-17{fill:#59285f;}.cls-18{fill:url(#linear-gradient-3);}.cls-19{stroke:#59285f;}.cls-20{fill:#ccc;}.cls-21{fill:url(#linear-gradient-4);}</style><linearGradient id="linear-gradient" x1="257.01" y1="17.96" x2="312.01" y2="17.96" gradientTransform="matrix(1, 0, 0, -1, 0, 160)" gradientUnits="userSpaceOnUse"><stop offset="0" stop-color="#449cdd"/><stop offset="0.08" stop-color="#449cdd" stop-opacity="0.94"/><stop offset="0.38" stop-color="#449cdd" stop-opacity="0.71"/><stop offset="0.65" stop-color="#449cdd" stop-opacity="0.54"/><stop offset="0.86" stop-color="#449cdd" stop-opacity="0.44"/><stop offset="1" stop-color="#449cdd" stop-opacity="0.4"/></linearGradient><linearGradient id="linear-gradient-2" x1="179.01" y1="484.43" x2="234.01" y2="484.43" gradientTransform="matrix(-1, 0, 0, 1, 491.02, -453.8)" gradientUnits="userSpaceOnUse"><stop offset="0" stop-color="#449cdd" stop-opacity="0.4"/><stop offset="0.14" stop-color="#449cdd" stop-opacity="0.44"/><stop offset="0.35" stop-color="#449cdd" stop-opacity="0.54"/><stop offset="0.62" stop-color="#449cdd" stop-opacity="0.71"/><stop offset="0.92" stop-color="#449cdd" stop-opacity="0.94"/><stop offset="1" stop-color="#449cdd"/></linearGradient><linearGradient id="linear-gradient-3" x1="369.67" y1="-60.44" x2="295.89" y2="-60.44" gradientTransform="matrix(1, 0, 0, -1, 73.12, 51.05)" gradientUnits="userSpaceOnUse"><stop offset="0" stop-color="#59285f"/><stop offset="1" stop-color="#449cdd" stop-opacity="0.4"/></linearGradient><linearGradient id="linear-gradient-4" x1="368.01" y1="102.48" x2="416.01" y2="102.48" gradientTransform="matrix(1, 0, 0, -1, 0, 160)" gradientUnits="userSpaceOnUse"><stop offset="0" stop-color="#59285f"/><stop offset="1" stop-color="#59285f" stop-opacity="0.4"/></linearGradient></defs><rect class="cls-1" width="531.73" height="158"/><rect class="cls-1" x="26.5" y="16.54" width="29" height="140"/><rect class="cls-2" x="26.5" y="16.54" width="29" height="140"/><rect class="cls-1" x="136" y="16.54" width="121" height="140"/><rect class="cls-3" x="136" y="16.54" width="121" height="140"/><rect class="cls-1" x="407.28" y="21.54" width="120" height="125" rx="5"/><rect class="cls-4" x="407.28" y="21.54" width="120" height="125" rx="5"/><rect class="cls-5" x="407.28" y="21.54" width="120" height="125" rx="5"/><rect class="cls-1" x="146" y="26.54" width="100" height="20"/><rect class="cls-1" x="146" y="26.54" width="100" height="20"/><rect class="cls-6" x="146" y="26.54" width="100" height="20"/><rect class="cls-7" x="146" y="26.54" width="100" height="20"/><path d="M183,39.14c0,.4,0,.74.08,1-1.25.78-2.28,1.46-3.1,2l-.56-.79a1.35,1.35,0,0,0,.41-1.07V35.69h-1.66v-.84h2.6v5.69C181.47,40.13,182.21,39.66,183,39.14ZM179.38,31c.85.87,1.47,1.52,1.85,1.94l-.82.69a22.77,22.77,0,0,0-1.74-2Zm2.56,3.88h3.41v-4h1v4h3.43v.84h-3.43v6.61h-1V35.76h-3.41Z"/><path d="M190.64,32h4.05v9.55h-.93v-1h-2.19v1.12h-.93Zm3.12.87h-2.19v3h2.19Zm-2.19,6.84h2.19v-3h-2.19Zm3.5-6.23h4.16V30.85h.94v2.59h1.67v.87h-1.67v6.3c0,1-.5,1.57-1.5,1.57l-2,0c0-.28-.1-.61-.19-1,.82.07,1.46.1,1.92.1a.73.73,0,0,0,.82-.84V34.31h-4.16Zm1.32,2q.93,1.71,1.41,2.73l-.93.47c-.31-.74-.74-1.67-1.32-2.78Z"/><path d="M202.56,35.78h4.74a3.33,3.33,0,0,0,.23-1l.85.12a5.42,5.42,0,0,1-.21.9h2.55c-.31-.22-.64-.45-1-.66l.48-.53a15.49,15.49,0,0,1,1.4.91l-.26.28h2.18v.78H209q1.35,1.32,4.8,1.25c-.18.32-.35.62-.48.9l-.6-.05v3.58h-.82V41.6h-2.5v.63h-.82V38.61h3.73c-2.24-.3-3.66-1-4.28-2h-.22q-.65,1.39-4.25,2h3.75v3.62h-.82V41.6H204v.64h-.82V38.68l-.65.12c-.11-.24-.27-.52-.45-.84,2.6-.33,4.17-.8,4.69-1.4h-4.24Zm.64-4.26h4.11v3.41h-.82v-.36H204v.48h-.82Zm3.29.73H204v1.59h2.47Zm0,7.08H204v1.54h2.47Zm2.07-7.81h4.15V35h-.82v-.41h-2.51v.36h-.82Zm3.33.73h-2.51v1.59h2.51Zm0,7.08h-2.5v1.54h2.5Z"/><rect class="cls-1" x="146" y="51.54" width="100" height="20"/><rect class="cls-6" x="146" y="51.54" width="100" height="20"/><rect class="cls-7" x="146" y="51.54" width="100" height="20"/><rect class="cls-1" x="146" y="76.54" width="100" height="20"/><rect class="cls-6" x="146" y="76.54" width="100" height="20"/><rect class="cls-7" x="146" y="76.54" width="100" height="20"/><rect class="cls-1" x="146" y="101.54" width="100" height="20"/><rect class="cls-6" x="146" y="101.54" width="100" height="20"/><rect class="cls-7" x="146" y="101.54" width="100" height="20"/><rect class="cls-1" x="146" y="126.23" width="100" height="20"/><rect class="cls-6" x="146" y="126.23" width="100" height="20"/><rect class="cls-7" x="146" y="126.23" width="100" height="20"/><path d="M172.25,141.57c2.8-1,4.47-2.43,5-4.3h-4.78v-.89h5c0-.17,0-.91,0-2.24h-4.28v-.89H176c-.67-.74-1.24-1.33-1.72-1.78l.68-.61c.67.6,1.29,1.18,1.84,1.72l-.75.67h2.8c.6-.85,1.13-1.65,1.6-2.4l1,.54c-.54.69-1,1.31-1.49,1.86h3v.89h-4.43c0,1.15,0,1.9,0,2.24h5.14v.89h-5a7.69,7.69,0,0,0,5.19,4c-.32.32-.61.64-.87.94A8.33,8.33,0,0,1,178,138q-1,2.75-5.08,4.39C172.72,142.15,172.5,141.87,172.25,141.57Z"/><path d="M184.79,133.08h.91v9.23h-.91Zm.6-1.68.67-.58c.66.6,1.25,1.2,1.78,1.78l-.76.65C186.54,132.6,186,132,185.39,131.4Zm1.25,3.33h4V133h.87v1.72h2.08v.84h-2.08V140a1.16,1.16,0,0,1-1.33,1.29c-.32,0-.83,0-1.53,0-.05-.36-.1-.66-.14-.9.58,0,1,.06,1.4.07s.72-.25.73-.75v-3.14a17.88,17.88,0,0,1-3.81,3.7,6.63,6.63,0,0,0-.63-.7,17.24,17.24,0,0,0,4.16-4h-3.76Zm1.84-2.3v-.88h6.79v9.06c0,1.14-.52,1.7-1.57,1.7l-1.88,0c0-.24-.1-.55-.19-.95.65,0,1.26.07,1.85.07s.88-.28.88-.84v-8.14Z"/><path d="M196.89,131.55h10.24v10.74h-1v-.75h-8.27v.75h-1Zm9.26.87h-8.27v8.27h8.27Zm-6.63,1.79h5v5.12h-.92v-.65h-3.15v.65h-.91Zm4.06.82h-3.15v2.83h3.15Z"/><path d="M211.64,138.08q0,.53.09,1a25.1,25.1,0,0,0-2.11,1.68l-.54-.77a1.48,1.48,0,0,0,.38-1v-3.57h-1.27v-.82h2.13v4.55C210.73,138.82,211.18,138.47,211.64,138.08Zm-2-7c.52.52,1.11,1.13,1.76,1.84l-.78.66c-.61-.77-1.16-1.42-1.65-1.93Zm3.26,1.29v4.82a6.91,6.91,0,0,1-1.87,5.22,4.73,4.73,0,0,0-.61-.75,5.78,5.78,0,0,0,1.62-4.38v-5.7h7.22V141c0,.87-.4,1.3-1.2,1.3l-1.85,0c0-.29-.1-.59-.17-.9.82.05,1.42.08,1.78.08s.58-.21.58-.62v-8.41Zm.36,3.23h2v-1.08h-1.64v-.75h1.64v-1.11h.84v1.11h1.62v.75h-1.62v1.08h2v.75h-4.78Zm.54,1.7h3.58v3H214.6v.54h-.82Zm2.76.75H214.6v1.48h1.94Z"/><line class="cls-8" x1="61.89" y1="86.54" x2="138.62" y2="86.54"/><polygon class="cls-9" points="62.98 90.28 56.5 86.54 62.98 82.8 62.98 90.28"/><polygon class="cls-9" points="137.53 90.28 144 86.54 137.53 82.8 137.53 90.28"/><circle class="cls-1" cx="317.43" cy="86.33" r="45"/><circle class="cls-10" cx="317.43" cy="86.33" r="45"/><path class="cls-11" d="M292.62,137.23a55.49,55.49,0,0,1,5.84-101.79"/><g class="cls-12"><path class="cls-13" d="M324.6,31.5A55.49,55.49,0,0,1,372,76.44"/><polygon class="cls-14" points="325.65 36.7 317.44 31.04 326.44 26.75 325.65 36.7"/></g><g class="cls-12"><path class="cls-13" d="M372.9,88.4A55.77,55.77,0,0,1,317.43,142"/><polygon class="cls-14" points="367.8 89.92 372.68 81.22 377.77 89.8 367.8 89.92"/></g><polygon class="cls-15" points="312.01 142.04 303.37 137.05 303.37 141.04 257.01 141.04 257.01 143.04 303.37 143.04 303.37 147.02 312.01 142.04"/><polygon class="cls-16" points="257.01 30.63 265.64 35.62 265.64 31.63 312.01 31.63 312.01 29.63 265.64 29.63 265.64 25.64 257.01 30.63"/><polygon class="cls-17" points="468.28 98.4 468.28 86.03 472.26 86.03 467.28 77.4 462.29 86.03 466.28 86.03 466.28 98.4 468.28 98.4"/><polygon class="cls-1" points="442.79 111.5 434.15 106.51 434.15 110.5 370.01 110.5 369.01 112.5 434.15 112.5 434.15 116.48 442.79 111.5"/><polygon class="cls-18" points="442.79 111.5 434.15 106.51 434.15 110.5 370.01 110.5 369.01 112.5 434.15 112.5 434.15 116.48 442.79 111.5"/><path class="cls-17" d="M451.28,101.5h-5.41v20h5.41Z"/><path class="cls-17" d="M460.63,101.5h-5.41v20h5.41Z"/><path class="cls-17" d="M470,101.5h-5.41v20H470Z"/><path class="cls-17" d="M479.33,101.5h-5.41v20h5.41Z"/><path class="cls-17" d="M488.68,101.5h-5.4v20h5.4Z"/><rect class="cls-1" x="417.18" y="47.54" width="100.19" height="27.76"/><rect class="cls-19" x="417.18" y="47.54" width="100.19" height="27.76"/><path class="cls-20" d="M438.91,69.25H423.37V53.71h15.54Zm-15-.5h14.54V54.21H423.88V68.75Z"/><path class="cls-20" d="M435.69,57h-9.06v9h9.06Z"/><path class="cls-17" d="M428.91,64a2.26,2.26,0,0,1,4.52,0h-4.52Z"/><path class="cls-17" d="M432.46,60.11a1.29,1.29,0,1,1-1.3-1.28h0A1.3,1.3,0,0,1,432.46,60.11Z"/><path class="cls-17" d="M437.15,55.53h3v-3h-3Z"/><path class="cls-17" d="M432.16,55.53h3v-3h-3Z"/><path class="cls-17" d="M427.17,55.53h3v-3h-3Z"/><path class="cls-17" d="M422.18,55.53h3v-3h-3Z"/><path class="cls-17" d="M437.18,70.54h3v-3h-3Z"/><path class="cls-17" d="M432.2,70.54h3v-3h-3Z"/><path class="cls-17" d="M427.2,70.54h3v-3h-3Z"/><path class="cls-17" d="M422.21,70.54h3v-3h-3Z"/><path class="cls-17" d="M437.18,65.58h3v-3h-3Z"/><path class="cls-17" d="M422.21,65.58h3v-3h-3Z"/><path class="cls-17" d="M437.18,60.52h3v-3h-3Z"/><path class="cls-17" d="M422.21,60.52h3v-3h-3Z"/><path class="cls-20" d="M463.18,69.25H447.65V53.71h15.53Zm-15-.5h14.54V54.21H448.15V68.75Z"/><path class="cls-20" d="M460,57h-9.1v9H460Z"/><path class="cls-17" d="M453.18,64a2.27,2.27,0,0,1,4.53,0Z"/><path class="cls-17" d="M456.73,60.11a1.28,1.28,0,1,1-1.28-1.28h0A1.28,1.28,0,0,1,456.73,60.11Z"/><path class="cls-17" d="M461.42,55.53h3v-3h-3Z"/><path class="cls-17" d="M456.44,55.53h3v-3h-3Z"/><path class="cls-17" d="M451.45,55.53h3v-3h-3Z"/><path class="cls-17" d="M446.45,55.53h3v-3h-3Z"/><path class="cls-17" d="M461.46,70.54h3v-3h-3Z"/><path class="cls-17" d="M456.47,70.54h3v-3h-3Z"/><path class="cls-17" d="M451.48,70.54h3v-3h-3Z"/><path class="cls-17" d="M446.49,70.54h3v-3h-3Z"/><path class="cls-17" d="M461.46,65.58h3v-3h-3Z"/><path class="cls-17" d="M446.49,65.58h3v-3h-3Z"/><path class="cls-17" d="M461.46,60.52h3v-3h-3Z"/><path class="cls-17" d="M446.49,60.52h3v-3h-3Z"/><path class="cls-20" d="M487.46,69.25H471.92V53.71h15.54Zm-15-.5H487V54.21H472.42V68.75Z"/><path class="cls-20" d="M484.23,57h-9.05v9h9.05Z"/><path class="cls-17" d="M477.45,64A2.28,2.28,0,0,1,482,64Z"/><path class="cls-17" d="M481,60.11a1.29,1.29,0,0,1-2.57.23.89.89,0,0,1,0-.23,1.29,1.29,0,0,1,2.57,0Z"/><path class="cls-17" d="M485.7,55.53h3v-3h-3Z"/><path class="cls-17" d="M480.71,55.53h3v-3h-3Z"/><path class="cls-17" d="M475.72,55.53h3v-3h-3Z"/><path class="cls-17" d="M470.73,55.53h3v-3h-3Z"/><path class="cls-17" d="M485.73,70.54h3v-3h-3Z"/><path class="cls-17" d="M480.74,70.54h3v-3h-3Z"/><path class="cls-17" d="M475.75,70.54h3v-3h-3Z"/><path class="cls-17" d="M470.76,70.54h3v-3h-3Z"/><path class="cls-17" d="M485.73,65.58h3v-3h-3Z"/><path class="cls-17" d="M470.76,65.58h3v-3h-3Z"/><path class="cls-17" d="M485.73,60.52h3v-3h-3Z"/><path class="cls-17" d="M470.76,60.52h3v-3h-3Z"/><path class="cls-20" d="M511.73,69.25H496.2V53.71h15.53Zm-15-.5h14.54V54.21H496.7V68.75Z"/><path class="cls-20" d="M508.51,57h-9.06v9h9.06Z"/><path class="cls-17" d="M501.73,64a2.26,2.26,0,0,1,4.52,0h-4.52Z"/><path class="cls-17" d="M505.28,60.11a1.29,1.29,0,1,1-1.3-1.28h0A1.28,1.28,0,0,1,505.28,60.11Z"/><path class="cls-17" d="M510,55.53h3v-3h-3Z"/><path class="cls-17" d="M505,55.53h3v-3h-3Z"/><path class="cls-17" d="M500,55.53h3v-3h-3Z"/><path class="cls-17" d="M495,55.53h3v-3h-3Z"/><path class="cls-17" d="M510,70.54h3v-3h-3Z"/><path class="cls-17" d="M505,70.54h3v-3h-3Z"/><path class="cls-17" d="M500,70.54h3v-3h-3Z"/><path class="cls-17" d="M495,70.54h3v-3h-3Z"/><path class="cls-17" d="M510,65.58h3v-3h-3Z"/><path class="cls-17" d="M495,65.58h3v-3h-3Z"/><path class="cls-17" d="M510,60.52h3v-3h-3Z"/><path class="cls-17" d="M495,60.52h3v-3h-3Z"/><polygon class="cls-1" points="416.01 56.52 376.64 56.52 376.64 52.54 368.01 57.52 376.64 62.51 376.64 58.52 416.01 58.52 416.01 56.52"/><polygon class="cls-21" points="416.01 56.52 376.64 56.52 376.64 52.54 368.01 57.52 376.64 62.51 376.64 58.52 416.01 58.52 416.01 56.52"/><path d="M184.79,112.69a14.23,14.23,0,0,0,1.7-4.16h-1.58v-.77h1.69V105.4h.82v2.36H189v.77h-1.57v1.74l.51-.38c.42.52.79,1,1.11,1.45l-.64.51a14.77,14.77,0,0,0-1-1.44v6.44h-.82v-6.54a13.55,13.55,0,0,1-1.43,3.41A7.61,7.61,0,0,0,184.79,112.69Zm8.36-7.19-.16.23a9.5,9.5,0,0,0,3.54,3.61c-.21.24-.42.5-.64.8a11.26,11.26,0,0,1-3.41-3.62,15.43,15.43,0,0,1-3.2,3.76,5.67,5.67,0,0,0-.67-.74,12,12,0,0,0,3.42-4Zm-4.46,10h4.47a45.42,45.42,0,0,0,1.31-4.35l.95.27c-.52,1.64-1,3-1.38,4.08h2.2v.84h-7.55Zm.58-3.87.81-.24c.29.87.6,1.93.91,3.18l-.87.26C189.86,113.66,189.58,112.59,189.27,111.63Zm.81-1.93h4.8v.82h-4.8Zm1.41,1.46.82-.2c.31,1.08.56,2.15.77,3.23l-.88.23A26.46,26.46,0,0,0,191.49,111.16Z"/><path d="M197.21,106.54h5v-1.25h.83v1.25h5.07v.79h-4.34a13,13,0,0,0,4.68,2.13l-.54.83c-.42-.14-.82-.3-1.22-.47v5.09h-.89v-.53H199.5v.54h-.89v-5c-.4.18-.82.36-1.26.53-.16-.24-.34-.49-.55-.75a13.53,13.53,0,0,0,4.64-2.33h-4.23Zm-.28,9h11.42v.84H196.93Zm5.29-6v-2a12.83,12.83,0,0,1-3.48,2.3h8a12.6,12.6,0,0,1-3.65-2.28v2Zm3.59,1.1H199.5v1.07h6.31Zm-6.31,2.94h6.31v-1.08H199.5Z"/><path d="M185.42,86.23h1.4V83.66h.85v2.57h1.5V87h-1.5v1.59l1.64-.23c0,.2,0,.49,0,.87l-1.6.19V92h-.85v-2.5l-2.43.31-.1-.88c.88-.08,1.73-.17,2.53-.26V87h-2.27v-.73c.41-1.15.76-2.23,1.08-3.23h-1.21v-.79h1.44c.2-.65.37-1.27.51-1.84l.9.2c-.17.56-.35,1.1-.52,1.64h2.59v.79h-2.85C186.14,84.17,185.78,85.23,185.42,86.23Zm7.44-5.69-.21.35A7.85,7.85,0,0,0,196,84.45a9,9,0,0,0-.63.77,9.2,9.2,0,0,1-3.23-3.48,13.45,13.45,0,0,1-3,3.61,5.77,5.77,0,0,0-.63-.68,10.81,10.81,0,0,0,3.29-4.13ZM190.06,85H191v2.59a14.24,14.24,0,0,0,2.83-2.14l.74.55A16.53,16.53,0,0,1,191,88.54v1.51c0,.48.27.72.82.72h1.59c.55,0,.86-.23.94-.7a15.57,15.57,0,0,0,.19-1.72l.88.34a15.55,15.55,0,0,1-.22,1.66,1.43,1.43,0,0,1-1.62,1.28h-2c-1,0-1.43-.45-1.43-1.36Z"/><path d="M199.94,89.19c0,.41.05.74.08,1a24.06,24.06,0,0,0-2.18,1.56l-.55-.79a1.26,1.26,0,0,0,.4-1V85.31h-1.38v-.84h2.28v5.66Zm-2.45-8.55c.85.87,1.47,1.52,1.85,1.94l-.8.67a22.81,22.81,0,0,0-1.74-2Zm1.64,3.62a15.41,15.41,0,0,0,2.42-3.92l.89.34c-.2.43-.41.83-.62,1.21h5.71q-.14,5.35-.23,7.76c-.07,1.4-.68,2.11-1.83,2.11-.71,0-1.35,0-1.91-.06-.05-.31-.12-.66-.2-1a12,12,0,0,0,1.88.16c.71,0,1.09-.45,1.14-1.36.08-1.76.15-4,.2-6.74h-5.25a16.93,16.93,0,0,1-1.44,2.06A5.7,5.7,0,0,0,199.13,84.26Zm1.46-.14h4.29v5.34h-3.44v.69h-.85Zm3.45.79h-2.6v1.47H204Zm0,3.75V87.15h-2.6v1.51Z"/><path d="M185.51,56.62h10.24V67.35h-1V66.6h-8.28v.75h-1Zm9.26.87h-8.28v8.27h8.28Zm-6.64,1.79h5V64.4h-.91v-.66h-3.15v.66h-.92Zm4.07.82h-3.15v2.82h3.15Z"/><path d="M200.26,63.15c0,.35,0,.69.08,1-.81.59-1.51,1.15-2.11,1.67l-.53-.76a1.53,1.53,0,0,0,.38-1.06V60.45H196.8v-.82h2.14v4.56C199.35,63.88,199.79,63.54,200.26,63.15Zm-2-7c.53.52,1.11,1.13,1.76,1.84l-.77.66c-.61-.78-1.16-1.42-1.65-1.94Zm3.26,1.29v4.81a6.9,6.9,0,0,1-1.86,5.22,6.83,6.83,0,0,0-.61-.75,5.76,5.76,0,0,0,1.62-4.37V56.64h7.22V66c0,.86-.4,1.3-1.2,1.3-.46,0-1.08,0-1.85,0a8,8,0,0,0-.18-.9c.83.05,1.42.08,1.78.08s.59-.21.59-.62v-8.4Zm.37,3.22h2V59.58h-1.64v-.75h1.64V57.72h.85v1.11h1.62v.75h-1.62v1.08h2v.75h-4.78Zm.53,1.7H206v3h-2.77v.54h-.82Zm2.77.75h-1.95V64.6h1.95Z"/><path d="M140.17,8c.22,1.5-.14,2.33-1.07,2.49a4.18,4.18,0,0,1-1.14,0c-.07-.32-.14-.64-.23-1a3.24,3.24,0,0,0,1.06.09c.52-.06.69-.6.5-1.61a5,5,0,0,0-1-2c.29-1,.6-2,.94-3.23h-1.55V13h-.87V2h3.36V2.8c-.35,1.13-.69,2.16-1,3.08A5,5,0,0,1,140.17,8Zm4.24-6.49-.16.37a7.94,7.94,0,0,0,3.65,3.65c-.2.23-.41.5-.64.82a9.81,9.81,0,0,1-3.47-3.64,12.2,12.2,0,0,1-3.35,3.8,5.59,5.59,0,0,0-.61-.74,10.88,10.88,0,0,0,3.66-4.26Zm-1.88,4.58V7.93a6.77,6.77,0,0,1-1.91,5.13,7.74,7.74,0,0,0-.79-.6,5.85,5.85,0,0,0,1.8-4.56V6.07Zm2.5,0h.89v6.85H145Z"/><path d="M148.19,10l.9-.09V2.2a33.36,33.36,0,0,0,4-.41l.32.87c-.9.12-2.06.22-3.48.31V4.6h3v.78h-3V7.15h2.92v.77H150V9.85c1.07-.12,2.2-.26,3.38-.42,0,.16,0,.44,0,.85-1.17.13-2.3.27-3.37.42v2.21h-.87v-2.1l-.69.11Zm5.16-2.36V6.84h5.48v.88a8.56,8.56,0,0,1-1.94,2.88,7.65,7.65,0,0,0,3,1.28,6,6,0,0,0-.59.9,8.74,8.74,0,0,1-3.11-1.56A11.4,11.4,0,0,1,153,13a8.39,8.39,0,0,0-.57-.81,11.91,11.91,0,0,0,3.13-1.59,7,7,0,0,1-1.62-2.91Zm5.43-2.3c.3,0,.66,0,1.07,0l-.17.88-1.11,0c-.8,0-1.2-.44-1.2-1.33V2.85h-2.16v.63a3.41,3.41,0,0,1-1.68,3.17l-.63-.72a2.53,2.53,0,0,0,1.43-2.5V2h3.92V4.83A.47.47,0,0,0,158.78,5.37Zm-.9,2.3h-3.09A6.11,6.11,0,0,0,156.2,10,6.84,6.84,0,0,0,157.88,7.67Z"/><path d="M78.85,67.71v9.08H77.68V67.71Z"/><path d="M85.27,67.71,80.92,78.29H79.84L84.2,67.71Z"/><path d="M85.75,72.36a5,5,0,0,1,1.19-3.5,4.14,4.14,0,0,1,3.22-1.3,3.92,3.92,0,0,1,3,1.27,4.73,4.73,0,0,1,1.15,3.31,5,5,0,0,1-1.18,3.5A4.05,4.05,0,0,1,90,76.94a4,4,0,0,1-3.1-1.27A4.7,4.7,0,0,1,85.75,72.36Zm1.23-.1a3.94,3.94,0,0,0,.84,2.64,2.72,2.72,0,0,0,2.2,1,2.85,2.85,0,0,0,2.28-1,3.92,3.92,0,0,0,.83-2.66,4.08,4.08,0,0,0-.81-2.71,2.77,2.77,0,0,0-2.23-1,2.84,2.84,0,0,0-2.25,1A3.94,3.94,0,0,0,87,72.26Z"/><path d="M99.78,72.61h1.41V70H102v2.57h1.5v.8H102V75l1.64-.22c0,.19,0,.48,0,.86l-1.61.19v2.59h-.84v-2.5l-2.44.31-.09-.88c.88-.08,1.73-.16,2.53-.26V73.41H98.92v-.74c.4-1.15.76-2.22,1.08-3.22H98.79v-.8h1.44c.19-.65.36-1.26.5-1.84l.91.2-.52,1.64h2.59v.8h-2.85C100.5,70.55,100.14,71.61,99.78,72.61Zm7.45-5.68-.22.35a7.94,7.94,0,0,0,3.32,3.55c-.25.28-.46.54-.63.77a9.3,9.3,0,0,1-3.24-3.48,13.25,13.25,0,0,1-3,3.61,5.11,5.11,0,0,0-.64-.68,10.78,10.78,0,0,0,3.3-4.12Zm-2.81,4.44h.9V74a15,15,0,0,0,2.83-2.15l.74.55a16.67,16.67,0,0,1-3.57,2.56v1.51c0,.48.27.73.82.73h1.59a.82.82,0,0,0,.94-.71,15.46,15.46,0,0,0,.18-1.72l.88.34a13.41,13.41,0,0,1-.21,1.66A1.43,1.43,0,0,1,107.89,78h-2c-.95,0-1.43-.45-1.43-1.36Z"/><path d="M114.3,75.57c0,.41,0,.75.09,1a22.68,22.68,0,0,0-2.18,1.56l-.55-.78a1.28,1.28,0,0,0,.39-1V71.7h-1.37v-.85H113v5.66C113.4,76.21,113.85,75.9,114.3,75.57ZM111.85,67c.86.87,1.47,1.52,1.86,1.94l-.8.67a21.61,21.61,0,0,0-1.75-2Zm1.65,3.62a15.63,15.63,0,0,0,2.42-3.91l.89.34c-.21.42-.41.82-.63,1.2h5.72c-.1,3.57-.17,6.16-.24,7.76-.06,1.41-.67,2.11-1.83,2.11-.71,0-1.34,0-1.91-.06,0-.31-.11-.65-.19-1a12,12,0,0,0,1.88.16c.71,0,1.08-.45,1.14-1.35.08-1.76.14-4,.2-6.74H115.7a19.31,19.31,0,0,1-1.44,2A6.82,6.82,0,0,0,113.5,70.64ZM115,70.5h4.29v5.34H115.8v.7H115Zm3.45.8H115.8v1.46h2.61Zm0,3.75V73.54H115.8v1.51Z"/><path d="M11.63,49.25h3.85V46.9H12.05v-.84h3.43v-2.3H11.86v-.84h3.62V41.24h.94V52.65h-.94V50.09H11.63Zm6.63-8h.94v1.68h3.64v.84H19.2v2.3h3.47v.84H19.2v2.35h3.9v.84H19.2v2.56h-.94Z"/><path d="M27.59,48.2c.23,1.51-.14,2.35-1.11,2.51a4.63,4.63,0,0,1-1.19,0c-.06-.32-.15-.65-.25-1a3.23,3.23,0,0,0,1.07.1q.83-.09.54-1.68a5.05,5.05,0,0,0-1-2.11c.34-1.16.66-2.29,1-3.41H25V52.73H24.1V41.83h3.43v.82c-.37,1.2-.7,2.29-1,3.26A5.12,5.12,0,0,1,27.59,48.2Zm-.68,3.18h1.5V41.91H34v9.47h1.13v.83H26.91Zm2.41-8.64v2.34H33.1V42.74Zm0,5.49H33.1V45.9H29.32Zm0,3.15H33.1V49.05H29.32Z"/><path d="M35.64,50.83h2.07V43.36h1v7.47h2.87V41.19h1v3.44H46.5v.94H42.58v5.26h4.55v1H35.64Z"/><path d="M47.51,47.37q.65-.19,1.44-.48V44.22H47.62v-.8H49V41.24h.87v2.18h1.3v.8h-1.3v2.34c.35-.13.72-.27,1.1-.43q0,.57,0,.93l-1.13.43v3.89a1,1,0,0,1-1.1,1.21H47.61c0-.32-.09-.63-.16-.94a9.75,9.75,0,0,0,1.08.07q.42,0,.42-.45V47.84l-1.31.52Zm11.76,4.17c-.22.29-.41.55-.58.8A8.64,8.64,0,0,1,55.21,50v2.72h-.77V50a12.22,12.22,0,0,1-3.62,2.37,5.34,5.34,0,0,0-.54-.75A10.76,10.76,0,0,0,54,49.51H50.78v-.73h3.66v-.72h.77v.72H59v.73H55.59A8.09,8.09,0,0,0,59.27,51.54Zm-8-6.46h3.1V47.9h-.73v-.32H52v.36h-.73Zm2.37.68H52V46.9h1.64ZM52.11,41.7h5.55v2.87h-.84v-.31H53v.31h-.84Zm4.71.7H53v1.15h3.87Zm-1.48,2.65H58.5v2.89h-.72v-.37H56.07v.33h-.73Zm2.44.68H56.07v1.16h1.71Z"/><path d="M59.48,47a20.34,20.34,0,0,0,2.61-5.8l1,.28c-.3.92-.62,1.79-1,2.6v8.6h-.91V46a19.39,19.39,0,0,1-1.26,2C59.8,47.72,59.66,47.38,59.48,47Zm3.25-1.08A14.7,14.7,0,0,0,65,41.17l1,.18c-.18.6-.39,1.18-.62,1.75h5.78v.82H66.88v2h3.8v.82h-3.8v2.13h4v.82h-4v2.95H66V43.92H65a17.26,17.26,0,0,1-1.54,2.68C63.25,46.39,63,46.17,62.73,45.93Z"/><path d="M444.12,132.56A19.81,19.81,0,0,0,447,127l.93.34c-.36.92-.72,1.78-1.11,2.57v8.59h-.92V131.6a16,16,0,0,1-1.38,2C444.4,133.29,444.27,133,444.12,132.56ZM448,136.9h3.42v-3.7h-3.63v-.89h3.63v-3.49c-1,.07-2,.13-3.05.18,0-.27-.09-.57-.16-.9q3.94-.21,7-.54l.18.93c-.93.09-1.91.18-3,.25v3.57h3.44v.89h-3.44v3.7h3.26v.87H448Z"/><path d="M459.54,126.79l.88.37c-.18.29-.36.57-.55.84h6.34v.79a9.57,9.57,0,0,1-3,2.31,16.57,16.57,0,0,0,4.69.89c-.25.35-.47.68-.66,1a17.83,17.83,0,0,1-5.12-1.36,25.51,25.51,0,0,1-5.62,1.56l-.48-.82a25,25,0,0,0,5.09-1.27,7.26,7.26,0,0,1-2.13-1.93,17.26,17.26,0,0,1-2,2c-.24-.25-.45-.47-.65-.64A11.58,11.58,0,0,0,459.54,126.79Zm-2.46,6.86h3.41c.05-.38.1-.8.14-1.26h.95c-.05.46-.1.88-.16,1.26h4.73c-.08,1.4-.15,2.38-.22,2.94a1.74,1.74,0,0,1-2,1.67c-.46,0-1.15,0-2.08,0,0-.29-.1-.61-.17-1,.9.08,1.64.12,2.23.13a1,1,0,0,0,1.1-1c.07-.59.12-1.21.15-1.87h-3.91c-.41,1.87-1.87,3.24-4.36,4.09-.18-.26-.38-.52-.58-.79q3.36-1.09,4-3.3h-3.25Zm7.88-4.87h-5.24a7.41,7.41,0,0,0,2.43,1.86A10.56,10.56,0,0,0,465,128.78Z"/><path d="M472.58,133.65q.39,2.11-1.17,2.37a4.63,4.63,0,0,1-1.25,0,7.65,7.65,0,0,0-.27-1,3.14,3.14,0,0,0,1.14.1q.93-.09.57-1.5a5.25,5.25,0,0,0-1.11-2.1c.43-1.13.8-2.19,1.11-3.19h-1.91v10.14h-.93v-11h3.85v.82c-.41,1.2-.78,2.21-1.13,3A5,5,0,0,1,472.58,133.65ZM475,127h1c0,1.11,0,2.11,0,3,.44,3.58,1.75,6,3.93,7.28q-.43.47-.78.9a9.27,9.27,0,0,1-3.48-5.67,9.29,9.29,0,0,1-3.68,5.88q-.27-.31-.69-.75A9,9,0,0,0,475,130C475,129.31,475,128.34,475,127Z"/><path d="M482.16,133.23l.57-.65c.6.48,1.14,1,1.63,1.43a9.7,9.7,0,0,0,1.1-2.95h-2.63a16.85,16.85,0,0,1-2.27,3.8,7.54,7.54,0,0,0-.46-.94,17.8,17.8,0,0,0,2.72-5.56h-2.34v-.85h6.58v.85h-3.27c-.19.64-.39,1.26-.62,1.86h3.25v.86a11,11,0,0,1-5.05,7.41,6.94,6.94,0,0,0-.72-.71,11.59,11.59,0,0,0,3.21-3C483.41,134.35,482.85,133.83,482.16,133.23Zm6.29,2.33h-.9v-7.17h.9Zm1.69-8.47h.94v9.68q0,1.48-1.35,1.5c-.43,0-1.07,0-1.91,0a7.59,7.59,0,0,0-.19-1.06c.81.07,1.4.11,1.78.11s.73-.26.73-.79Z"/><path d="M437.85,40.12H443V32.3h-4.46v-.94h10v.94H444v7.82h5.15V41H437.85Z"/><path d="M449.64,36.16a20.41,20.41,0,0,0,2.61-5.81l1,.29c-.3.92-.62,1.78-1,2.59v8.61h-.91v-6.7a17,17,0,0,1-1.26,2C450,36.87,449.82,36.53,449.64,36.16Zm3.26-1.08a14.68,14.68,0,0,0,2.29-4.76l1,.18q-.29.9-.63,1.74h5.78v.82h-4.26v2h3.79v.82h-3.79v2.14H461v.82h-3.95v3h-.92V33.06h-.95a18.21,18.21,0,0,1-1.54,2.69C453.42,35.53,453.17,35.31,452.9,35.08Z"/><path d="M463.2,37.41c.69-.1,1.51-.24,2.46-.4-.05.29-.08.59-.11.9l-3.43.55-.19-.88a14.73,14.73,0,0,0,1.79-2.49c-.63,0-1.23.08-1.79.14l-.22-.8A21.53,21.53,0,0,0,464,30.26l.89.35c-.81,1.59-1.5,2.84-2.08,3.75l1.42,0c.27-.48.55-1,.83-1.56l.87.43C464.93,34.83,464,36.24,463.2,37.41Zm-1.49,2.71c1.37-.3,2.77-.62,4.17-1,0,.32,0,.61,0,.89-1.31.31-2.6.63-3.88,1Zm3.49.83A18.6,18.6,0,0,0,469,39.11a12.14,12.14,0,0,1-.66-2.51l-2.5.35-.14-.84,2.52-.35c-.06-.55-.11-1.13-.14-1.76l-2.12.25-.15-.85,2.22-.24c0-.82-.08-1.75-.12-2.81h1c0,1,.05,1.91.08,2.7l3.92-.45.11.84-4,.46c0,.62.08,1.19.14,1.73l4-.56.11.83-4,.57a10.6,10.6,0,0,0,.54,2.11,10.07,10.07,0,0,0,2.07-2l.76.57a13.83,13.83,0,0,1-2.45,2.31,3.45,3.45,0,0,0,1.08,1.23c.51.31.85.15,1-.47s.18-1.05.24-1.66a7.3,7.3,0,0,0,.9.34,15.09,15.09,0,0,1-.39,1.91c-.23.66-.62,1-1.17,1a2.25,2.25,0,0,1-1.58-.71,4.78,4.78,0,0,1-.85-1.12,19.65,19.65,0,0,1-3.61,1.82A9.29,9.29,0,0,0,465.2,41Zm4.68-10,.5-.59a19.53,19.53,0,0,1,1.78,1.27l-.56.67C471,31.78,470.38,31.33,469.88,31Z"/><path d="M473.59,38.6a12.63,12.63,0,0,0,1.78-4h-1.64v-.78h1.83V32l-1.51.19a5.72,5.72,0,0,0-.25-.81,28.41,28.41,0,0,0,4-.63l.26.82-1.67.31v1.95H478v.78h-1.62v1.54l.45-.39c.31.32.77.83,1.37,1.53l-.7.57-1.12-1.4v5.42h-.85V36.26A11.79,11.79,0,0,1,474,39.62C473.87,39.29,473.73,39,473.59,38.6Zm4.14,1.86h3.35V38.72h-2.66v-.78h2.66v-1.6h-2.94v-.78H485v.78h-3v1.6h2.66v.78H482v1.74h3.35v.78h-7.64Zm.94-9.59h5.81v4h-.89v-.48h-4v.48h-.89Zm4.92.8h-4v1.94h4Z"/><path d="M486.26,33.54c.72.52,1.4,1,2,1.58-.29.35-.52.61-.68.78-.59-.54-1.23-1.1-1.94-1.68ZM487.37,37a9.09,9.09,0,0,0,1,.47c-.41,1.33-.86,2.76-1.32,4.29L486,41.24A32.36,32.36,0,0,0,487.37,37Zm-.55-6.42c.78.6,1.45,1.15,2,1.65-.27.3-.51.55-.7.75-.59-.57-1.23-1.15-1.94-1.76Zm5.75-.18h.91v2.88l3.13-.71c-.06,1.73-.1,2.93-.13,3.6a2.48,2.48,0,0,1-.36,1.39,1.37,1.37,0,0,1-1.11.38h-.92c0-.31-.11-.63-.18-1A8.45,8.45,0,0,0,495,37c.37,0,.57-.3.6-.88,0-.42.06-1.25.08-2.5l-2.18.51v5.22h-.91v-5l-2,.46v4.85a.8.8,0,0,0,.9.9h3.67a.9.9,0,0,0,1-.79c.08-.42.17-1,.24-1.83a9.59,9.59,0,0,0,1,.34c-.1.72-.21,1.36-.34,1.9a1.54,1.54,0,0,1-1.68,1.27h-4.06a1.45,1.45,0,0,1-1.64-1.64V35l-.95.22-.16-.87,1.11-.25V31.73h.91v2.16l2-.45Z"/><path d="M447.29,12.8c.22,1.51-.15,2.34-1.12,2.51a4.17,4.17,0,0,1-1.18,0,8.07,8.07,0,0,0-.26-1,3.27,3.27,0,0,0,1.08.1q.82-.09.54-1.68a5,5,0,0,0-1.06-2.11c.35-1.15.67-2.29,1-3.41h-1.57V17.32h-.89V6.42h3.44v.82c-.37,1.21-.71,2.29-1,3.26A5.26,5.26,0,0,1,447.29,12.8ZM446.61,16h1.5V6.5h5.6V16h1.12v.84h-8.22ZM449,7.34V9.67h3.77V7.34Zm0,5.48h3.77V10.49H449ZM449,16h3.77V13.64H449Z"/><path d="M455.34,15.42h2.07V8h1v7.46h2.88V5.78h1V9.22h3.93v.94h-3.93v5.26h4.55v1H455.34Z"/><path d="M467.21,12l1.44-.49V8.81h-1.34V8h1.34V5.84h.87V8h1.3v.79h-1.3v2.35l1.1-.44c0,.39,0,.69,0,.93l-1.12.43V16c0,.78-.37,1.19-1.11,1.21a10.16,10.16,0,0,1-1.11,0c0-.31-.09-.62-.15-.94a9.75,9.75,0,0,0,1.08.07c.28,0,.42-.15.42-.44V12.43l-1.31.52ZM479,16.14c-.22.28-.41.54-.57.79a8.64,8.64,0,0,1-3.48-2.32v2.72h-.78V14.61A11.78,11.78,0,0,1,470.51,17a4.91,4.91,0,0,0-.54-.75,10.6,10.6,0,0,0,3.72-2.13h-3.21v-.73h3.65v-.71h.78v.71h3.82v.73h-3.44A8.15,8.15,0,0,0,479,16.14Zm-8-6.47h3.09v2.82h-.72v-.31H471.7v.35H471Zm2.37.68H471.7V11.5h1.64ZM471.8,6.29h5.56V9.16h-.85V8.85h-3.87v.31h-.84Zm4.71.71h-3.87V8.15h3.87ZM475,9.65h3.16v2.88h-.73v-.37h-1.71v.33H475Zm2.43.67h-1.71v1.16h1.71Z"/><path d="M479.17,11.6a20.5,20.5,0,0,0,2.62-5.8l1,.28c-.3.92-.62,1.79-1,2.6v8.61h-.92v-6.7a17,17,0,0,1-1.25,2C479.5,12.31,479.35,12,479.17,11.6Zm3.26-1.08a14.86,14.86,0,0,0,2.3-4.75l1,.17c-.19.6-.39,1.19-.62,1.75h5.77v.82h-4.26v2.05h3.8v.82h-3.8v2.13h3.95v.82h-3.95v3h-.92V8.51h-1a17.61,17.61,0,0,1-1.54,2.68C483,11,482.7,10.76,482.43,10.52Z"/><path d="M291.1,90.28h5v-.64h-5.81V88.41h5.81v-.63h-4.94V86.6h4.94V86h-4.54V83.09h4.54v-.62h-5.72V81.24h5.72v-.88h1.86v.88h5.73v1.23h-5.73v.62h4.56V86h-4.56v.63h4.76v1.81h1.06v1.23h-1.06v2.43h-1.84v-.61h-2.92v.39a2.13,2.13,0,0,1-.24,1.06,1.49,1.49,0,0,1-.72.63,2.48,2.48,0,0,1-.7.2h-2.43c-.05-.55-.15-1.12-.27-1.74.86.09,1.45.13,1.76.13.48,0,.73-.23.74-.67h-5Zm2.2-5.4h2.76v-.7H293.3Zm7.41,0v-.7h-2.79v.7Zm.13,2.9h-2.92v.63h2.92Zm-2.92,2.5h2.92v-.64h-2.92Z"/><path d="M306.76,80.41l1.89.55c-.33,1-.66,1.89-1,2.75V93.86h-1.83V87.64c-.37.67-.75,1.28-1.14,1.85-.16-1-.32-1.85-.48-2.56A35,35,0,0,0,306.76,80.41Zm1.48,7.31h4.36V85.11h-1.88a20.29,20.29,0,0,1-.84,2.31,17.34,17.34,0,0,0-1.71-.8,29.79,29.79,0,0,0,1.56-5.33l1.85.45c-.12.56-.25,1.1-.37,1.61h1.39V80.4h2v2.95h2.86v1.76h-2.86v2.61h3.23v1.77h-3.23v4.39h-2V89.49h-4.36Z"/><path d="M320.94,80.38l1.44.93a17.76,17.76,0,0,1-3.3,4c-.29-.5-.61-1-1-1.59A11.23,11.23,0,0,0,320.94,80.38Zm.17,3.9,1.34.89V81.24q4.82-.13,8.58-.54l.49,1.45c-.89.1-1.78.18-2.68.26v1.08h2.79v1.39h-2.79v.92h2.49v8.06h-1.61v-.48h-3.34v.48h-1.61V85.8h2.36v-.92h-3.07v2.69a11.2,11.2,0,0,1-1.53,6.33,16.57,16.57,0,0,0-1.21-1.38v1.3H319.7V89c-.3.31-.61.61-.92.89-.16-.51-.38-1.12-.65-1.83A16.94,16.94,0,0,0,321.11,84.28Zm.21,2.77v5.36a9.88,9.88,0,0,0,1.13-5.29V85.37C322.09,86,321.72,86.52,321.32,87.05Zm2.74-4.38v.82h3.07v-1Zm5.66,4.47h-3.34v.79h3.34ZM326.38,90h3.34v-.79h-3.34Zm0,2.06h3.34v-.8h-3.34Z"/><path d="M343.28,85.63q1.46,2.45,2.49,4.46l-1.65.89c-.68-1.35-1.4-2.77-2.18-4.25v7.11H340.1V87.61A22,22,0,0,1,337.89,91c-.25-.23-.49-.43-.7-.61-.05.38-.08.93-.1,1.65l-4.72.74-.2-1.86,1.71-.2v-3h-1.43V85.81h1.43V83.12h-1.51V81.3h4.81v1.82h-1.49v2.69h1.45v1.82h-1.45v2.79l1.34-.21a7.94,7.94,0,0,0-.67-.54A18.25,18.25,0,0,0,340,83.08h-2.34V81.26h7.59v1.82H342q-.34,1.14-.78,2.22h.76v1Z"/></svg>